<?xml version="1.0" encoding="UTF-8"?><svg id="Layer_1" xmlns="http://www.w3.org/2000/svg" xmlns:xlink="http://www.w3.org/1999/xlink" viewBox="0 0 32 32"><defs><style>.cls-1{fill:url(#linear-gradient);}.cls-1,.cls-2,.cls-3,.cls-4,.cls-5{stroke-width:0px;}.cls-2{fill:url(#linear-gradient-4);}.cls-3{fill:url(#linear-gradient-2);}.cls-4{fill:url(#linear-gradient-3);}.cls-5{fill:#fff;}</style><linearGradient id="linear-gradient" x1="21.80479" y1="5.25635" x2="29.76374" y2="24.61916" gradientUnits="userSpaceOnUse"><stop offset=".12279" stop-color="#00a5ae"/><stop offset="1" stop-color="#2b3990"/></linearGradient><linearGradient id="linear-gradient-2" x1="7.46332" y1="11.21857" x2="15.406" y2="30.5418" xlink:href="#linear-gradient"/><linearGradient id="linear-gradient-3" x1="12.61296" y1="8.98157" x2="20.56014" y2="28.31574" xlink:href="#linear-gradient"/><linearGradient id="linear-gradient-4" x1="9.31403" y1="9.91381" x2="17.60271" y2="30.07881" xlink:href="#linear-gradient"/></defs><g id="BNdHgF"><path class="cls-1" d="M22.45176,19.07c-1.05225,0-2.08496-.396-3.06934-1.17725-.87305-.69263-1.40918-1.57202-1.59229-2.61401-.05908-.33228.00635-.57715.2002-.74854.42334-.37451.854-.74292,1.30371-1.08447.43408-.32935.87402-.65063,1.31445-.97217.771-.56299,1.56836-1.14526,2.31494-1.76147,1.70801-1.40918,3.01367-3.06689,3.88037-4.927.70947-1.52246,1.07959-3.15649,1.13184-4.99512.00146-.03589.03516-.16772.07031-.17334.00635-.00098.01367-.00146.02246-.00146.04688,0,.12305.01514.12988.04834.03809.17822.08008.35596.12158.53369.0918.39185.18359.78369.2373,1.18066.23975,1.76538-.17529,3.52759-1.26953,5.38721-.29932.50854-.64551.99927-.97998,1.47363-.06396.09058-.12793.18091-.19141.27148,1.01758-.96289,1.79395-1.94653,2.36426-2.99414.01367-.02466.03906-.03906.06592-.03906.00879,0,.01709.00146.02588.00439.03467.0127.05518.04907.04785.08545-.24268,1.19214-.74072,2.34302-1.48096,3.4209-.63623.92554-1.40723,1.73071-2.35059,2.45239.71777-.23975,2.02441-.90991,2.91406-1.62939.97021-.78442,1.77344-1.71045,2.45508-2.83081.01367-.02295.03857-.03589.06396-.03589.00879,0,.01807.00146.02686.00488.03369.01294.05322.0481.04688.0835-.42578,2.32983-1.77051,4.06616-4.22119,5.4375.62402-.11108,1.22949-.37036,1.83984-.78687.01318-.00879.02783-.01294.04248-.01294.01953,0,.03857.00757.05322.02222.02539.02563.02881.06592.0083.09546-.08594.12939-.12207.18359-.16309.23389-.43213.53247-.99219.97314-1.81689,1.42871-1.00537.55566-2.05518.93091-3.12549,1.11792.47656.09912.93018.14771,1.37744.14771.40332,0,.80371-.0415,1.19043-.12305.96387-.20337,1.80908-.6687,2.58447-1.42188.01465-.01416.0332-.02124.05225-.02124.0166,0,.0332.00537.04736.0166.0293.02393.03613.06616.01611.09839-.66602,1.05811-1.63916,2.3479-3.26611,2.93555-.53223.19238-1.06836.28589-1.6377.28589-.75928.00024-1.5542-.16602-2.48193-.52075.64795.69971,1.56641,1.0542,2.73438,1.0542.55225,0,1.16797-.08032,1.8291-.23901.00586-.00122.01172-.00195.01758-.00195.02686,0,.05273.01465.06592.03906.01611.02979.01025.06689-.01416.09033-.47998.45654-.97559.76196-1.51514.93311-.47852.15186-.95654.22876-1.4209.22876Z"/><path class="cls-5" d="M28.0852.67913c.12149.56934.27968,1.1333.35777,1.7085.26288,1.93604-.29305,3.6958-1.25986,5.33936-.43201.73438-.95235,1.41699-1.43285,2.12305-.02754.04004-.05725.0791-.07465.12744,1.12489-.99072,2.10822-2.09863,2.83061-3.42529-.25119,1.2373-.75897,2.35938-1.46892,3.39307-.71375,1.03906-1.5972,1.91211-2.63576,2.65918.56622-.06396,2.24986-.87939,3.30844-1.73535.98006-.79248,1.79103-1.73145,2.47151-2.8501-.4985,2.72803-2.24078,4.375-4.53598,5.57617.83771-.06543,1.57384-.37451,2.27095-.8501-.05298.07666-.10115.15723-.1597.22949-.49142.60547-1.12184,1.03809-1.79486,1.41016-1.08772.60107-2.24387,1.00488-3.48515,1.16797.58897.15137,1.17958.23828,1.77385.23828.39986,0,.8013-.03906,1.20534-.12451,1.0208-.21533,1.87762-.71924,2.62131-1.44189-.80141,1.27344-1.76271,2.37598-3.22801,2.90527-.54297.19629-1.07941.28125-1.61215.28125-.91621,0-1.82166-.25195-2.73154-.62549.5448.70898,1.45169,1.30908,2.98387,1.30908.53545,0,1.147-.07324,1.84654-.24072-.45053.42822-.93068.73975-1.48593.91553-.48186.15283-.94783.22559-1.39883.22559-1.09065,0-2.09375-.42432-3.02217-1.16113-.83008-.65869-1.37794-1.50586-1.56523-2.56836-.04611-.26123-.0202-.50488.17647-.6792.4216-.37354.85072-.74072,1.29909-1.08105,1.20737-.9165,2.4639-1.77197,3.63187-2.73535,1.65115-1.36182,2.98842-2.99561,3.9005-4.95312.74245-1.59375,1.08936-3.2749,1.13925-5.02441.00096-.03418.00461-.06787.007-.10156.0224-.00391.04482-.00781.06721-.01172M28.08535.52923c-.00856,0-.01723.00049-.02594.00195l.02579.14795-.05936-.14209c-.0679.01221-.1526.07422-.15749.14307-.00452.05615-.00658.08203-.00731.10791-.05214,1.82764-.42021,3.45215-1.12529,4.96533-.86226,1.85059-2.16093,3.49951-3.85997,4.90088-.74449.61426-1.5401,1.19482-2.30952,1.75684-.44128.32227-.88261.64453-1.3176.97461-.49222.37354-.95749.77783-1.30786,1.08838-.21474.19043-.28824.45801-.22472.81738.1869,1.06055.73186,1.95557,1.61972,2.66016.99792.79199,2.0461,1.19336,3.1154,1.19336.47224,0,.95815-.07812,1.44421-.23242.54948-.17383,1.05452-.48486,1.54388-.94971.04918-.04688.06087-.12109.02847-.18066-.02666-.04883-.07773-.07812-.13177-.07812-.0116,0-.02332.00146-.03497.00391-.65565.15723-1.26517.23682-1.8116.23682-1.00172,0-1.81517-.26465-2.42708-.78809.7964.2749,1.49907.40479,2.17474.40479.57834,0,1.12234-.09521,1.66313-.29053,1.64854-.5957,2.63167-1.89795,3.30399-2.96631.04045-.06445.02647-.14893-.03256-.19678-.02762-.02246-.06105-.0332-.09436-.0332-.03786,0-.07559.01416-.10457.04248-.7653.74365-1.59868,1.20215-2.54773,1.40234-.38139.08057-.7765.12158-1.17438.12158-.31902,0-.64151-.0249-.97348-.07617.9425-.20557,1.86693-.55664,2.75734-1.04883.83348-.46094,1.40057-.90723,1.83878-1.44678.04308-.05322.08107-.11035.11885-.16748l.04778-.07129c.04109-.05957.03394-.14014-.01701-.19141-.02904-.02881-.06758-.04395-.10643-.04395-.02931,0-.05881.0083-.08449.02588-.43855.29932-.87418.51611-1.31584.65381,2.19006-1.34082,3.40933-3.02002,3.81296-5.229.013-.0708-.02661-.14111-.09421-.16699-.01746-.00684-.03549-.00977-.0533-.00977-.05113,0-.10033.02588-.12819.07178-.67691,1.11279-1.47427,2.03271-2.43768,2.81152-.72137.5835-1.71576,1.1333-2.44104,1.44434.77968-.64795,1.43384-1.3623,1.98631-2.1665.74631-1.08643,1.24837-2.24658,1.49228-3.44824.01477-.07275-.02589-.14551-.09564-.1709-.01688-.00586-.03423-.00879-.05133-.00879-.05362,0-.10486.02881-.13177.07812-.4465.81982-1.02002,1.60059-1.73767,2.36279.23465-.33789.46632-.68457.67558-1.04004,1.10284-1.875,1.52129-3.65283,1.27921-5.43555-.05449-.40137-.14803-.80078-.23848-1.18652-.04161-.17773-.08322-.35498-.12123-.5332-.01498-.07031-.07704-.11865-.14655-.11865h0Z"/><path class="cls-3" d="M9.41368,19.52532c-.90234,0-1.75977-.3103-2.54834-.92188-.04639-.03589-.22119-.18945-.22119-.18945-.02539-.02173-.0332-.05762-.01953-.08789.01221-.0271.03906-.04395.06836-.04395.00342,0,.44434.0686.44434.0686.29834.04834.58447.09473.87256.11865.17236.01416.34277.02197.51074.02197,1.12842,0,2.01562-.3501,2.71143-1.07031-.87061.33862-1.70117.51001-2.47217.51001-1.89502,0-3.51855-1.03467-4.8252-3.07544-.02051-.03174-.01416-.07373.01465-.0979.01416-.01172.03125-.01758.04834-.01758.01807,0,.03662.00659.05078.01978.76709.70532,1.63232,1.15088,2.57178,1.32397.35693.06567.7251.09888,1.09424.09888.46582,0,.95117-.05322,1.44775-.15845-2.27734-.4458-3.91699-1.32324-5.13965-2.74561-.0249-.02856-.02441-.07104.00098-.09912.01465-.01636.03516-.02466.05566-.02466.01514,0,.02979.00439.04297.01343.61963.43335,1.25.6897,1.91943.77905-1.00635-.55225-1.78027-1.11694-2.42969-1.77319-.94287-.95288-1.55322-2.12231-1.8667-3.57471-.00781-.03564.01123-.07178.04492-.08545.00928-.00366.01904-.00537.02832-.00537.02539,0,.0498.0127.06348.03516,1.29102,2.06885,3.02197,3.48828,5.28125,4.32837-1.95801-1.56372-3.18311-3.4436-3.73926-5.73413-.00879-.03638.01074-.07373.04541-.0874.00879-.00342.01807-.00513.02734-.00513.02637,0,.05225.01416.06543.03882.55762,1.00928,1.32129,1.96191,2.38379,2.96924-1.07373-1.43286-1.74219-2.65112-2.15527-3.91992-.28906-.88745-.41455-1.71289-.38281-2.52295,0-.03174.00684-.83911.10742-1.23096l.32227-1.25464c.00879-.03345.03857-.0564.07275-.0564.00195,0,.00391,0,.00586.00024.03662.00293.06543.03149.06885.06787l.04883.57739c.03076.38672.06055.75366.10889,1.11816.2041,1.53198.70752,3.00244,1.49512,4.37061,1.00049,1.73706,2.43164,3.30225,4.37549,4.78442.61719.4707,1.25049.92041,1.88379,1.37036.43311.30762.86621.61548,1.29443.92969.28906.2124.54736.46509.78711.70557.18262.18359.24658.42114.19043.7063-.3457,1.74268-1.46338,2.94629-3.32178,3.57739-.48535.16479-.96777.24854-1.43359.24854Z"/><path class="cls-5" d="M3.91027,1.14397c.05542.60889.08595,1.15625.1582,1.69824.20856,1.56494.71615,3.02979,1.50416,4.39844,1.10988,1.92725,2.644,3.4707,4.39541,4.80664,1.0399.79297,2.12474,1.52686,3.17928,2.30078.27974.20557.5325.45117.77814.69824.16998.17041.21908.38867.16965.63867-.36623,1.84863-1.56588,2.94141-3.27158,3.52051-.47992.16309-.95085.24463-1.4102.24463-.88242,0-1.72224-.30127-2.50201-.90625-.06797-.05273-.13096-.11182-.21835-.18701.46204.06738.8844.15186,1.31081.18701.17448.01465.34696.02246.51691.02246,1.05023,0,2.00713-.29541,2.78699-1.11572.04986-.05273.09562-.10889.14517-.19971-.96582.40723-1.86233.60498-2.69268.60498-1.92415,0-3.49486-1.06152-4.76235-3.04053.74649.68604,1.60606,1.15771,2.60893,1.34229.37074.06836.74007.1001,1.108.1001.6078,0,1.21194-.08691,1.81359-.24219-2.11076-.36279-4.01355-1.11621-5.44913-2.78564.67887.4751,1.42205.7749,2.27204.82178-.06767-.04443-.13263-.09326-.20341-.13184-.90602-.49121-1.75332-1.06152-2.48252-1.79834-.96409-.97412-1.54636-2.146-1.84679-3.53809,1.39344,2.23291,3.3117,3.70703,5.75896,4.51318-2.04915-1.52539-3.47263-3.47266-4.08089-5.97607.71479,1.29492,1.69575,2.36377,2.78303,3.34326.01443-.01074.02886-.02197.04329-.0332-.04553-.06152-.09013-.12354-.13675-.18457-.97288-1.26709-1.82507-2.60254-2.32429-4.13574-.26405-.81055-.41267-1.64062-.37921-2.49658,0,0,.00569-.82812.10516-1.21484.10714-.41699.20708-.80615.32248-1.25488M3.91017.99407c-.06788,0-.12801.0459-.14516.1123l-.24513.9541-.07736.30127c-.10287.3999-.10964,1.21631-.10988,1.25098-.03188.81396.09454,1.64746.38659,2.54395.34272,1.05273.85924,2.06934,1.63318,3.19922-.73079-.77051-1.29079-1.52197-1.72452-2.30762-.02708-.04932-.07813-.07764-.13137-.07764-.01817,0-.03657.00342-.05438.01025-.07003.02734-.10907.10205-.09132.17529.52532,2.16162,1.64145,3.96045,3.40179,5.47314-2.03122-.8501-3.60947-2.20654-4.80685-4.12549-.0281-.04492-.07682-.07031-.12731-.07031-.01885,0-.03795.00342-.05631.01074-.06755.02734-.10563.09961-.09025.1709.31675,1.46777.93393,2.64893,1.88681,3.61182.56641.57227,1.22602,1.0752,2.0499,1.56055-.49577-.12598-.97278-.35107-1.44339-.68066-.02605-.01807-.0561-.02686-.08595-.02686-.04113,0-.08187.0166-.11127.04932-.05074.05615-.05182.14111-.00252.19824,1.16689,1.35693,2.70831,2.22266,4.81264,2.69287-.36167.05859-.71367.0874-1.06338.0874-.36488,0-.72852-.03271-1.08082-.09766-.92462-.17041-1.77738-.60938-2.53461-1.30518-.02863-.02637-.06506-.03955-.10152-.03955-.03423,0-.0685.01172-.09645.03516-.05772.04834-.0705.13232-.02984.1958,1.32164,2.06348,2.96643,3.10986,4.88866,3.10986.67685,0,1.39826-.13037,2.15143-.38818-.637.53613-1.4232.79785-2.39091.79785-.16586,0-.33421-.00732-.50449-.02148-.28414-.02344-.56691-.06934-.8663-.11768-.14196-.02344-.28657-.04688-.43527-.06836-.00727-.00098-.01453-.00146-.02171-.00146-.05807,0-.1118.03369-.13642.08789-.02767.06055-.01192.13232.03866.17578l.07931.06934c.05204.0459.09736.08545.14493.12256.80222.62207,1.67494.93799,2.59396.93799.47424,0,.96494-.08545,1.45848-.25293,1.88564-.64014,3.01964-1.86279,3.37045-3.6333.06075-.30713-.01208-.57471-.21059-.77393-.22953-.23096-.4994-.49561-.79552-.71338-.42626-.3125-.85739-.61865-1.28851-.92529-.62457-.44336-1.27041-.90234-1.88863-1.37354-1.93671-1.47754-3.36169-3.03516-4.35637-4.76221-.78278-1.35986-1.28255-2.82129-1.48546-4.34375-.04854-.36377-.07814-.73145-.10948-1.12109-.01491-.18506-.03017-.37451-.04803-.5708-.00661-.07275-.06458-.12988-.13732-.13574-.00407-.00049-.00813-.00049-.01216-.00049h0Z"/><path class="cls-4" d="M15.0709,31.39568c-.02686,0-.05273-.0144-.06592-.03931-.01807-.03296-.00879-.07397.02148-.09619l.44189-.31934c.30566-.21948.59814-.42944.88135-.65186,1.17725-.92285,2.00977-1.90015,2.54541-2.98779.729-1.48022.81982-3.03589.27783-4.75635-.0625-.19873-.13525-.40015-.22559-.62402.39014,2.54004-.60791,4.60474-2.97363,6.14429-.0127.00806-.02686.01196-.04102.01196-.021,0-.04199-.00879-.05664-.02588-.02441-.02832-.02441-.07031,0-.09839,1.69922-1.94312,2.30371-4.21362,1.80029-6.75513-.06885,1.00122-.26025,1.85938-.5835,2.61719-.28613.66992-.68896,1.22119-1.22998,1.68481-.01416.01196-.03125.01807-.04883.01807-.01611,0-.03174-.00488-.04541-.01514-.02783-.02124-.0376-.05908-.02295-.09106l.11816-.25439c.46777-.90259.68896-1.68823.6958-2.4729.0083-.98999-.37402-1.84155-.74951-2.5437l-.27393-.50635c-.21045-.38672-.42041-.77368-.61719-1.16748-.73975-1.47754-.70264-2.98364.11279-4.60376l.21436-.41772-.03662.01782c-.16992.08423-.32715.16187-.49219.21729-.16406.05542-.33643.08765-.50684.11938,0,0-.2251.04346-.23047.04346-.02637,0-.05127-.01392-.06494-.03735-.01611-.02832-.0127-.06372.00928-.08789l.23193-.25415c.16992-.18555.33447-.36475.49023-.55078.20264-.24194.40039-.48755.59863-.7334l.42871-.5293c.60498-.73682,1.36377-1.09497,2.31885-1.09497.07227,0,.23535.00659.24316.00659.26465,0,.45752-.03711.65088-.07349.1084-.02051.21631-.04102.32422-.05566.07715-.01074.15381-.01733.22949-.01733.24463,0,.44873.06738.64307.21216.02148.01587.03271.04248.0293.06909-.00293.02686-.02051.0498-.04541.06006l-.32031.13428c-1.125.46191-1.87305,1.12524-2.28662,2.02808-.56006,1.22241-.44922,2.47827.32959,3.73242.78711,1.26831,1.99316,2.08838,3.6875,2.50757l.15283.03491c.03662.00806.10059.05005.09814.08691-.00293.03711.00684.07544-.03027.07837-.17432.01416-.34717.02124-.51855.02124-.88721,0-1.75146-.18213-2.62891-.55518l.02051.01831c.07568.06641.15186.13281.22412.20264,1.23096,1.18237,1.97949,2.56323,2.22461,4.10352.29736,1.87329-.16016,3.60303-1.35986,5.14136-1.05127,1.34692-2.50098,2.33203-4.56299,3.09985-.00879.00317-.01758.00464-.02637.00464ZM17.19298,11.35198c.19385,0,.34717-.05103.44385-.14551-.0376-.00342-.07471-.00537-.11182-.00537-.18164,0-.33789.04541-.48242.14136.05225.00635.10254.00952.15039.00952Z"/><path class="cls-5" d="M19.44151,10.49065c.201,0,.39803.04834.59723.19678-.12541.05273-.22261.09424-.32031.13428-1.01643.41748-1.85783,1.04443-2.32603,2.06641-.60588,1.32227-.41205,2.60156.33365,3.80273.86369,1.3916,2.17487,2.15576,3.73354,2.54102.07727.01904.15523.03516.23288.05273-.17235.01416-.34315.021-.51247.021-1.07298,0-2.08691-.27588-3.06586-.76416.10474.0918.20972.18408.31412.27637.10571.09375.21397.18457.31575.28271,1.16525,1.11963,1.94661,2.45605,2.20166,4.06104.29948,1.88428-.17558,3.58496-1.34471,5.0835-1.16605,1.49512-2.73627,2.40771-4.53029,3.07568.47015-.34375.9081-.64502,1.32568-.97266,1.05835-.83008,1.96539-1.79395,2.56601-3.01367.76945-1.56299.79793-3.1748.28221-4.81201-.13541-.43018-.31194-.84717-.50749-1.27441.71529,2.94141-.32796,5.14258-2.80455,6.75391,1.86331-2.13037,2.38945-4.57568,1.70859-7.30371-.00861.08203-.02132.16357-.02522.24609-.04663.97852-.20494,1.93408-.59201,2.84082-.26622.62402-.64172,1.1709-1.20996,1.65771.05534-.11963.08315-.18701.11646-.25098.40794-.78711.69672-1.6084.70445-2.50684.00806-.93555-.32715-1.77246-.75897-2.57959-.29779-.55664-.60771-1.10742-.89008-1.67188-.76501-1.5293-.63915-3.04248.11313-4.53711.09648-.19141.19627-.38135.31761-.61719-.26645.12402-.48679.25049-.72282.33008-.23141.07812-.47881.1084-.71358.15869.25365-.28125.49766-.53662.72417-.80713.34872-.41553.68321-.84375,1.02771-1.26318.59528-.72461,1.34694-1.06738,2.26059-1.06738.07111,0,.14305.00244.21613.00635.02795.00146.056.00244.08403.00244.30702,0,.61897-.08936.92845-.13184.07414-.01025.14751-.0166.22032-.0166M17.19314,11.42718c.2789,0,.48479-.09912.57977-.27832-.08472-.01416-.16745-.02246-.24847-.02246-.23154,0-.44917.06787-.65982.26123.11781.02637.22792.03955.32852.03955M19.44157,10.34075c-.07968,0-.1599.00684-.24095.01807-.10869.01465-.21785.03516-.327.05615-.20233.03809-.39343.07422-.58087.07422-.02521,0-.0504-.00098-.07553-.00244-.07599-.00391-.15077-.00635-.22464-.00635-.9655,0-1.76508.37744-2.37651,1.12207-.142.17285-.2823.34717-.42262.52148-.19972.24854-.39943.49658-.60406.74072-.15497.18506-.31812.36279-.48693.54639l-.23373.25635c-.04357.04834-.05103.11914-.01848.17578.02718.04688.07708.07471.12983.07471.01043,0,.02097-.00098.03146-.00342.0704-.01465.14195-.02832.21386-.0415.16985-.03125.34545-.06396.51628-.12158.11417-.03857.2235-.08643.33402-.13965-.03801.07422-.0746.14551-.11073.21729-.81547,1.62012-.85358,3.19189-.11333,4.67139.19714.39453.40765.78174.61814,1.16943l.27382.50635c.37123.69385.74962,1.53418.74124,2.50732-.00664.77197-.22514,1.54688-.68764,2.43945-.02229.04248-.04245.08691-.06921.14648l-.0502.11035c-.02962.06396-.01062.14014.04562.18262.02682.02051.0587.03027.0905.03027.03484,0,.0696-.01221.09761-.03613.55107-.47217.96007-1.03223,1.25034-1.7124.26289-.61621.43956-1.29785.53465-2.06836.30867,2.29053-.32039,4.34766-1.87688,6.12744-.0493.05615-.04948.14014-.00041.19678.02943.03418.07117.05176.11339.05176.02818,0,.05659-.00781.08173-.02441,2.19708-1.4292,3.22797-3.30664,3.07661-5.59326.00354.01123.00706.02246.01054.0332.53574,1.70068.4462,3.23828-.27371,4.70068-.53027,1.07715-1.35588,2.0459-2.524,2.96191-.282.22119-.57333.43066-.87767.64893-.14493.104-.29279.21045-.44397.3208-.06047.04443-.07904.12646-.04355.19238.02682.0498.07829.07861.13211.07861.01746,0,.03514-.00293.05231-.00928,2.07649-.77344,3.53697-1.76562,4.59622-3.12402,1.21327-1.55518,1.67575-3.3042,1.37459-5.19922-.24377-1.53418-.98102-2.91064-2.19176-4.09326.75768.27539,1.50946.41064,2.27794.41064.17332,0,.34816-.00684.5246-.02148.07384-.00586.13225-.06494.13748-.13867.00526-.07422-.04424-.14062-.11649-.15723l-.07838-.01709c-.05067-.01123-.10135-.02246-.15172-.03467-1.67404-.41406-2.86537-1.22314-3.64198-2.47461-.76443-1.23145-.87369-2.46289-.32474-3.66113.40532-.88477,1.1402-1.53564,2.24666-1.99023l.21902-.09131.10243-.04346c.04962-.021.08426-.06641.09076-.12012.0065-.05322-.01611-.10596-.0593-.13818-.20459-.15234-.42923-.22656-.68677-.22656h0Z"/><path class="cls-2" d="M15.27647,20.02386c-.0127,0-.02588-.00317-.0376-.01001-.44189-.25586-.93311-.59058-1.26123-1.14111-.70801.63647-1.58203.76953-2.48975.85742-.00244.00024-.00488.00024-.00732.00024-.03369,0-.06348-.02222-.07227-.05493-.00977-.03516.00732-.07227.04004-.08789,1.24951-.59106,2.02197-1.2981,2.50439-2.29248.0127-.02612.03906-.04224.06738-.04224.00342,0,.00684.00024.01025.00073.03223.00439.05762.02905.06348.06079.17139.94971.57715,1.79565,1.24023,2.58643.02344.02783.02344.06836,0,.09644-.01465.01733-.03613.02661-.05762.02661Z"/><path class="cls-5" d="M14.01992,17.32757c.18493,1.02246.6235,1.86572,1.25668,2.62109-.5117-.2959-.97941-.6416-1.28056-1.19531-.71008.68359-1.60258.81348-2.51556.90234,1.07172-.50732,1.98547-1.18506,2.53944-2.32812M14.01985,17.17767c-.05685,0-.1096.03223-.13491.08447-.47383.97754-1.23519,1.67432-2.46864,2.25781-.0659.03125-.09982.10547-.0804.17578.0181.06543.07768.10986.14446.10986.00485,0,.00974,0,.01465-.00049.89331-.08691,1.75451-.21729,2.4655-.81787.33524.52051.81118.84277,1.241,1.09131.0235.01367.04938.02002.07503.02002.04311,0,.08556-.01855.11491-.05322.04683-.05615.04688-.13721.00011-.19287-.6543-.78076-1.05469-1.61523-1.22403-2.55176-.01156-.06396-.06292-.11279-.12724-.12158-.00684-.00098-.01367-.00146-.02043-.00146h0Z"/></g></svg>