<svg width="782" height="217" viewBox="0 0 782 217" fill="none" xmlns="http://www.w3.org/2000/svg">
<path d="M173.82 114.36H187.55C192.9 114.36 196.87 115.15 199.46 116.74C202.05 118.33 203.35 120.8 203.35 124.16C203.35 126.37 202.78 128.25 201.65 129.81C200.52 131.37 199.03 132.38 197.18 132.82V133.09C199.62 133.74 201.39 134.81 202.48 136.32C203.57 137.83 204.12 139.78 204.12 142.19C204.12 145.76 202.78 148.57 200.1 150.63C197.42 152.69 193.76 153.71 189.13 153.71H173.81V114.35L173.82 114.36ZM184.45 129.46H187.65C189.17 129.46 190.36 129.15 191.19 128.52C192.02 127.89 192.44 126.96 192.44 125.72C192.44 123.51 190.77 122.41 187.43 122.41H184.44V129.46H184.45ZM184.45 137.24V145.5H188.19C191.51 145.5 193.17 144.1 193.17 141.3C193.17 139.99 192.73 138.99 191.84 138.29C190.95 137.59 189.66 137.24 187.98 137.24H184.45Z" fill="black"/>
<path d="M218.85 139.4V153.72H208.22V114.36H221.11C231.81 114.36 237.15 118.24 237.15 125.99C237.15 130.55 234.92 134.08 230.47 136.57L241.94 153.72H229.88L221.53 139.4H218.84H218.85ZM218.85 131.4H220.84C224.55 131.4 226.41 129.76 226.41 126.47C226.41 123.76 224.59 122.41 220.95 122.41H218.85V131.4Z" fill="black"/>
<path d="M242.77 153.72V114.36H253.46V153.72H242.77Z" fill="black"/>
<path d="M276.57 153.72H265.94V123.06H256.33V114.36H286.16V123.06H276.58V153.72H276.57Z" fill="black"/>
<path d="M306.38 153.72H295.75V123.06H286.14V114.36H315.97V123.06H306.39V153.72H306.38Z" fill="black"/>
<path d="M356.31 153.72H342.37L327.99 125.99H327.75C328.09 130.35 328.26 133.68 328.26 135.98V153.72H318.84V114.36H332.73L347.05 141.71H347.21C346.96 137.74 346.83 134.56 346.83 132.15V114.36H356.31V153.72Z" fill="black"/>
<path d="M385.42 153.72H362.05V114.36H385.42V122.89H372.69V129.08H384.48V137.61H372.69V145.04H385.42V153.71V153.72Z" fill="black"/>
<path d="M403.61 128.95L410.39 114.36H421.91L408.96 138.35V153.72H398.25V138.67L385.3 114.36H396.88L403.61 128.95Z" fill="black"/>
<path d="M458.35 153.72H434.98V114.36H458.35V122.89H445.62V129.08H457.41V137.61H445.62V145.04H458.35V153.71V153.72Z" fill="black"/>
<path d="M491.04 126.88C491.04 131.28 489.74 134.67 487.15 137.07C484.56 139.47 480.87 140.66 476.1 140.66H473.11V153.72H462.48V114.36H476.1C481.07 114.36 484.8 115.45 487.3 117.62C489.79 119.79 491.04 122.88 491.04 126.88ZM473.11 131.99H475.05C476.65 131.99 477.92 131.54 478.86 130.64C479.8 129.74 480.27 128.5 480.27 126.93C480.27 124.27 478.8 122.95 475.85 122.95H473.1V132L473.11 131.99Z" fill="black"/>
<path d="M523.12 126.88C523.12 131.28 521.82 134.67 519.23 137.07C516.64 139.47 512.95 140.66 508.18 140.66H505.19V153.72H494.56V114.36H508.18C513.15 114.36 516.88 115.45 519.38 117.62C521.87 119.79 523.12 122.88 523.12 126.88ZM505.19 131.99H507.13C508.73 131.99 510 131.54 510.94 130.64C511.88 129.74 512.35 128.5 512.35 126.93C512.35 124.27 510.88 122.95 507.93 122.95H505.18V132L505.19 131.99Z" fill="black"/>
<path d="M550 153.72H526.63V114.36H550V122.89H537.27V129.08H549.06V137.61H537.27V145.04H550V153.71V153.72Z" fill="black"/>
<path d="M564.77 139.4V153.72H554.14V114.36H567.03C577.73 114.36 583.07 118.24 583.07 125.99C583.07 130.55 580.84 134.08 576.39 136.57L587.86 153.72H575.8L567.45 139.4H564.76H564.77ZM564.77 131.4H566.76C570.47 131.4 572.33 129.76 572.33 126.47C572.33 123.76 570.51 122.41 566.87 122.41H564.77V131.4Z" fill="black"/>
<path d="M614.43 141.77C614.43 144.21 613.81 146.38 612.57 148.27C611.33 150.16 609.55 151.63 607.21 152.68C604.88 153.73 602.14 154.25 599 154.25C596.38 154.25 594.18 154.07 592.4 153.7C590.62 153.33 588.77 152.69 586.85 151.78V142.3C588.88 143.34 590.99 144.15 593.18 144.74C595.37 145.32 597.38 145.62 599.21 145.62C600.79 145.62 601.95 145.35 602.68 144.8C603.42 144.25 603.78 143.55 603.78 142.69C603.78 142.15 603.63 141.68 603.34 141.28C603.04 140.88 602.57 140.47 601.91 140.06C601.25 139.65 599.51 138.8 596.67 137.53C594.1 136.36 592.18 135.23 590.9 134.14C589.62 133.05 588.67 131.79 588.05 130.37C587.43 128.95 587.12 127.27 587.12 125.34C587.12 121.72 588.44 118.89 591.08 116.86C593.72 114.83 597.34 113.82 601.96 113.82C606.03 113.82 610.19 114.76 614.42 116.65L611.16 124.86C607.48 123.17 604.3 122.33 601.63 122.33C600.25 122.33 599.24 122.57 598.62 123.06C597.99 123.54 597.68 124.15 597.68 124.86C597.68 125.63 598.08 126.32 598.88 126.93C599.68 127.54 601.85 128.65 605.38 130.27C608.77 131.8 611.13 133.43 612.45 135.18C613.77 136.93 614.43 139.13 614.43 141.79V141.77Z" fill="black"/>
<path d="M654.58 133.99C654.58 140.61 652.96 145.65 649.71 149.09C646.46 152.54 641.71 154.26 635.44 154.26C629.17 154.26 624.53 152.53 621.24 149.06C617.95 145.6 616.3 140.55 616.3 133.93C616.3 127.31 617.94 122.38 621.21 118.92C624.48 115.47 629.25 113.74 635.49 113.74C641.73 113.74 646.5 115.45 649.73 118.88C652.96 122.31 654.58 127.34 654.58 133.98V133.99ZM627.5 133.99C627.5 141.6 630.15 145.4 635.44 145.4C638.13 145.4 640.13 144.48 641.43 142.63C642.73 140.78 643.38 137.9 643.38 133.99C643.38 130.08 642.72 127.16 641.4 125.28C640.08 123.4 638.11 122.47 635.49 122.47C630.16 122.47 627.49 126.31 627.49 133.99H627.5Z" fill="black"/>
<path d="M696.4 153.72H682.46L668.08 125.99H667.84C668.18 130.35 668.35 133.68 668.35 135.98V153.72H658.93V114.36H672.82L687.14 141.71H687.3C687.05 137.74 686.92 134.56 686.92 132.15V114.36H696.4V153.72Z" fill="black"/>
<path d="M221.26 181.93L209.79 176.9V176.16L221.26 170.43V171.58L211.3 176.48L221.26 180.77V181.93Z" fill="black"/>
<path d="M249.95 178.9H242.76L240.29 185.14H238.92L246.03 167.38H246.82L253.79 185.14H252.4L249.94 178.9H249.95ZM243.22 177.79H249.55L247.14 171.42C246.94 170.92 246.7 170.23 246.41 169.34C246.19 170.11 245.95 170.82 245.7 171.44L243.22 177.79Z" fill="black"/>
<path d="M283.29 172.54C283.29 174.25 282.71 175.56 281.55 176.47C280.39 177.38 278.74 177.84 276.61 177.84H273.88V185.15H272.65V167.47H276.98C281.19 167.47 283.29 169.16 283.29 172.55V172.54ZM273.88 176.77H276.31C278.3 176.77 279.74 176.44 280.63 175.78C281.52 175.12 281.96 174.06 281.96 172.58C281.96 171.22 281.54 170.21 280.7 169.55C279.86 168.89 278.56 168.56 276.81 168.56H273.88V176.76V176.77Z" fill="black"/>
<path d="M304.9 185.14H303.65V176.44H293.32V185.14H292.09V167.46H293.32V175.31H303.65V167.46H304.9V185.14Z" fill="black"/>
<path d="M329.73 176.28C329.73 179.09 329.03 181.31 327.63 182.94C326.23 184.57 324.29 185.39 321.82 185.39C319.35 185.39 317.43 184.57 316.03 182.94C314.63 181.31 313.93 179.08 313.93 176.26C313.93 173.44 314.64 171.23 316.05 169.61C317.47 167.99 319.4 167.18 321.85 167.18C324.3 167.18 326.25 167.99 327.64 169.62C329.04 171.24 329.73 173.46 329.73 176.28ZM315.26 176.28C315.26 178.81 315.82 180.77 316.95 182.15C318.08 183.53 319.7 184.22 321.81 184.22C323.92 184.22 325.57 183.53 326.69 182.16C327.81 180.79 328.38 178.83 328.38 176.27C328.38 173.71 327.82 171.77 326.69 170.41C325.57 169.05 323.95 168.37 321.83 168.37C319.71 168.37 318.1 169.06 316.96 170.43C315.82 171.8 315.25 173.75 315.25 176.27L315.26 176.28Z" fill="black"/>
<path d="M348.41 185.14H338.75V167.46H348.41V168.6H339.98V175.29H347.94V176.43H339.98V184.01H348.41V185.15V185.14Z" fill="black"/>
<path d="M370.23 185.14H368.98L358.51 169.44H358.41C358.51 171.31 358.56 172.72 358.56 173.67V185.14H357.37V167.46H358.6L369.06 183.14H369.13C369.06 181.69 369.02 180.31 369.02 179V167.46H370.22V185.14H370.23Z" fill="black"/>
<path d="M380.19 185.14V167.46H381.42V185.14H380.19Z" fill="black"/>
<path d="M402.21 185.14H400.79L395.56 176.89L390.24 185.14H388.87L394.82 175.92L389.41 167.45H390.8L395.58 175.02L400.43 167.45H401.75L396.27 175.89L402.2 185.13L402.21 185.14Z" fill="black"/>
<path d="M435.15 185.14H434.13L430.25 171.5C429.93 170.38 429.69 169.46 429.52 168.74C429.39 169.44 429.21 170.25 428.97 171.16C428.73 172.07 427.43 176.73 425.07 185.14H424.03L419.17 167.46H420.46L423.56 178.85C423.68 179.31 423.79 179.74 423.9 180.13C424 180.52 424.1 180.89 424.18 181.23C424.26 181.57 424.34 181.9 424.41 182.22C424.48 182.54 424.54 182.86 424.6 183.18C424.79 182.08 425.2 180.42 425.83 178.18L428.85 167.45H430.22L433.76 179.76C434.17 181.18 434.47 182.32 434.64 183.2C434.74 182.62 434.88 182 435.05 181.35C435.22 180.7 436.46 176.06 438.78 167.45H440.03L435.14 185.13L435.15 185.14Z" fill="black"/>
<path d="M460.93 185.14H459.68V176.44H449.35V185.14H448.12V167.46H449.35V175.31H459.68V167.46H460.93V185.14Z" fill="black"/>
<path d="M485.75 176.28C485.75 179.09 485.05 181.31 483.65 182.94C482.25 184.57 480.31 185.39 477.84 185.39C475.37 185.39 473.45 184.57 472.05 182.94C470.65 181.31 469.95 179.08 469.95 176.26C469.95 173.44 470.66 171.23 472.07 169.61C473.49 167.99 475.42 167.18 477.87 167.18C480.32 167.18 482.27 167.99 483.66 169.62C485.06 171.24 485.75 173.46 485.75 176.28ZM471.29 176.28C471.29 178.81 471.85 180.77 472.98 182.15C474.11 183.53 475.73 184.22 477.84 184.22C479.95 184.22 481.6 183.53 482.72 182.16C483.84 180.79 484.41 178.83 484.41 176.27C484.41 173.71 483.85 171.77 482.72 170.41C481.6 169.05 479.98 168.37 477.86 168.37C475.74 168.37 474.13 169.06 472.99 170.43C471.85 171.8 471.28 173.75 471.28 176.27L471.29 176.28Z" fill="black"/>
<path d="M513.44 171.12C512.3 171.12 511.42 171.59 510.78 172.52C510.14 173.45 509.82 174.74 509.82 176.37C509.82 179.77 511.11 181.47 513.7 181.47C514.48 181.47 515.24 181.36 515.97 181.14C516.7 180.92 517.44 180.66 518.18 180.35V184.39C516.7 185.04 515.04 185.37 513.17 185.37C510.5 185.37 508.45 184.6 507.03 183.05C505.61 181.5 504.89 179.26 504.89 176.34C504.89 174.51 505.23 172.9 505.92 171.51C506.61 170.12 507.6 169.06 508.9 168.31C510.19 167.56 511.72 167.19 513.47 167.19C515.38 167.19 517.21 167.61 518.95 168.44L517.49 172.2C516.84 171.89 516.18 171.64 515.53 171.43C514.88 171.22 514.18 171.12 513.43 171.12H513.44Z" fill="black"/>
<path d="M543.15 176.28C543.15 179.26 542.42 181.52 540.96 183.07C539.5 184.62 537.36 185.39 534.55 185.39C531.74 185.39 529.65 184.61 528.17 183.06C526.69 181.5 525.95 179.24 525.95 176.26C525.95 173.28 526.69 171.07 528.16 169.52C529.63 167.97 531.77 167.19 534.58 167.19C537.39 167.19 539.53 167.96 540.98 169.5C542.43 171.04 543.16 173.3 543.16 176.29L543.15 176.28ZM530.98 176.28C530.98 179.7 532.17 181.41 534.55 181.41C535.76 181.41 536.66 180.99 537.24 180.16C537.82 179.33 538.12 178.04 538.12 176.28C538.12 174.52 537.82 173.21 537.23 172.37C536.64 171.53 535.75 171.11 534.57 171.11C532.17 171.11 530.98 172.84 530.98 176.29V176.28Z" fill="black"/>
<path d="M566.31 175.93C566.31 178.88 565.5 181.16 563.87 182.75C562.24 184.34 559.96 185.15 557.02 185.15H551.3V167.47H557.42C560.26 167.47 562.45 168.2 563.99 169.65C565.53 171.1 566.31 173.2 566.31 175.94V175.93ZM561.35 176.1C561.35 174.48 561.03 173.28 560.39 172.5C559.75 171.72 558.77 171.33 557.47 171.33H556.08V181.24H557.14C558.59 181.24 559.66 180.82 560.33 179.98C561.01 179.14 561.35 177.85 561.35 176.12V176.1Z" fill="black"/>
<path d="M584.93 185.14H574.43V167.46H584.93V171.29H579.21V174.07H584.51V177.9H579.21V181.24H584.93V185.13V185.14Z" fill="black"/>
<path d="M604.54 179.77C604.54 180.87 604.26 181.84 603.71 182.69C603.15 183.54 602.35 184.2 601.3 184.67C600.25 185.14 599.02 185.38 597.61 185.38C596.43 185.38 595.44 185.3 594.65 185.13C593.85 184.96 593.02 184.68 592.16 184.27V180.01C593.07 180.48 594.02 180.84 595 181.1C595.98 181.36 596.89 181.49 597.71 181.49C598.42 181.49 598.94 181.37 599.27 181.12C599.6 180.87 599.77 180.56 599.77 180.17C599.77 179.93 599.7 179.72 599.57 179.53C599.44 179.35 599.22 179.17 598.93 178.98C598.64 178.79 597.85 178.42 596.58 177.84C595.43 177.32 594.56 176.81 593.99 176.32C593.41 175.83 592.99 175.26 592.71 174.63C592.43 173.99 592.29 173.24 592.29 172.37C592.29 170.74 592.88 169.47 594.07 168.56C595.26 167.65 596.88 167.19 598.96 167.19C600.79 167.19 602.66 167.61 604.56 168.46L603.1 172.15C601.45 171.39 600.02 171.01 598.82 171.01C598.2 171.01 597.75 171.12 597.47 171.34C597.19 171.56 597.05 171.83 597.05 172.15C597.05 172.5 597.23 172.81 597.59 173.08C597.95 173.35 598.92 173.85 600.51 174.58C602.03 175.27 603.09 176 603.69 176.79C604.28 177.58 604.58 178.57 604.58 179.76L604.54 179.77Z" fill="black"/>
<path d="M629.86 167.46L623.27 185.14H622.01L628.59 167.46H629.86Z" fill="black"/>
<path d="M636.45 180.76L646.4 176.47L636.45 171.57V170.42L647.92 176.15V176.89L636.45 181.92V180.76Z" fill="black"/>
<path d="M173.18 138.01C169.51 143.84 165.11 148.89 158.4 151.31C151.64 153.75 145.1 152.44 138.51 149.73C141.88 154.11 148.26 157.58 160.62 154.62C158.56 156.58 156.36 158.01 153.82 158.81C146.28 161.2 139.59 159.29 133.58 154.53C129.78 151.51 127.27 147.63 126.41 142.77C126.2 141.57 126.32 140.46 127.22 139.66C129.15 137.95 131.11 136.27 133.17 134.71C138.7 130.51 144.45 126.6 149.8 122.19C157.36 115.95 163.48 108.48 167.66 99.51C171.06 92.21 172.65 84.52 172.88 76.51C172.88 76.35 172.9 76.2 172.91 76.05C173.01 76.03 173.12 76.01 173.22 76C173.78 78.61 174.5 81.19 174.86 83.82C176.06 92.68 173.52 100.74 169.09 108.26C167.11 111.62 164.73 114.75 162.53 117.98C162.4 118.17 162.27 118.34 162.19 118.57C167.34 114.03 171.84 108.96 175.15 102.89C174 108.56 171.68 113.69 168.43 118.42C165.16 123.18 161.12 127.18 156.36 130.59C158.95 130.3 166.66 126.56 171.51 122.65C176 119.02 179.71 114.72 182.82 109.6C180.54 122.09 172.56 129.63 162.05 135.13C165.89 134.83 169.26 133.41 172.45 131.24C172.21 131.59 171.99 131.96 171.72 132.29C169.47 135.06 166.58 137.04 163.5 138.75C158.52 141.5 153.23 143.35 147.54 144.1C152.05 145.26 156.58 145.59 161.18 144.62C165.85 143.63 169.78 141.33 173.18 138.02V138.01Z" fill="url(#paint0_linear_197_461)"/>
<path d="M61.06 83.8699C61.55 81.9599 62.01 80.1799 62.54 78.1299C62.79 80.9199 62.93 83.4299 63.26 85.9099C64.21 93.0699 66.54 99.7799 70.15 106.05C75.23 114.87 82.25 121.94 90.27 128.06C95.03 131.69 100 135.05 104.83 138.59C106.11 139.53 107.27 140.66 108.39 141.79C109.17 142.57 109.39 143.57 109.17 144.71C107.49 153.17 102 158.18 94.19 160.83C87.77 163.01 81.71 162.01 76.28 157.8C75.97 157.56 75.68 157.29 75.28 156.94C77.4 157.25 79.33 157.63 81.28 157.8C87.01 158.28 92.26 157.16 96.41 152.79C96.64 152.55 96.85 152.29 97.07 151.88C82.4 158.07 71.25 153.7 62.94 140.73C66.36 143.87 70.29 146.03 74.88 146.88C79.38 147.71 83.83 147.37 88.26 146.23C78.6 144.57 69.89 141.12 63.31 133.48C66.42 135.65 69.82 137.03 73.71 137.24C73.4 137.04 73.1 136.81 72.78 136.64C68.63 134.39 64.75 131.78 61.41 128.41C57 123.95 54.33 118.58 52.96 112.21C59.34 122.43 68.12 129.18 79.33 132.87C69.95 125.89 63.43 116.97 60.65 105.51C63.92 111.44 68.41 116.33 73.39 120.82C73.46 120.77 73.52 120.72 73.59 120.67C73.38 120.39 73.18 120.1 72.96 119.83C68.51 114.03 64.6 107.91 62.32 100.9C61.11 97.1899 60.43 93.3899 60.58 89.4699C60.58 89.4699 60.61 85.6799 61.06 83.9099V83.8699Z" fill="url(#paint1_linear_197_461)"/>
<path d="M143.95 161.18C138.16 161.65 132.76 160.37 127.57 157.78C128.05 158.2 128.53 158.62 129.01 159.05C129.49 159.48 129.99 159.9 130.46 160.34C135.79 165.47 139.37 171.59 140.54 178.93C141.91 187.56 139.74 195.34 134.38 202.2C129.04 209.04 121.85 213.22 113.64 216.28C115.79 214.71 117.8 213.33 119.71 211.83C124.56 208.03 128.71 203.62 131.46 198.03C134.98 190.87 135.11 183.5 132.75 176C132.13 174.03 131.32 172.12 130.43 170.16C133.7 183.63 128.93 193.7 117.59 201.08C126.12 191.33 128.53 180.13 125.41 167.64C125.37 168.02 125.31 168.39 125.29 168.77C125.08 173.25 124.35 177.63 122.58 181.78C121.36 184.64 119.64 187.14 117.04 189.37C117.29 188.82 117.42 188.51 117.57 188.22C119.44 184.62 120.76 180.86 120.8 176.74C120.84 172.46 119.3 168.63 117.33 164.93C115.97 162.38 114.55 159.86 113.26 157.28C109.76 150.28 110.33 143.35 113.78 136.51C114.22 135.63 114.68 134.76 115.23 133.68C114.01 134.25 113 134.83 111.92 135.19C110.86 135.55 109.73 135.69 108.65 135.92C109.81 134.63 110.93 133.46 111.97 132.23C113.57 130.33 115.1 128.37 116.67 126.45C119.61 122.87 123.38 121.33 128.01 121.59C129.54 121.68 131.1 121.21 132.65 121C133.93 120.82 135.15 120.9 136.39 121.83C135.82 122.07 135.37 122.26 134.92 122.44C130.27 124.35 126.41 127.22 124.27 131.9C121.5 137.95 122.38 143.81 125.8 149.31C129.75 155.68 135.76 159.18 142.89 160.94C143.24 161.03 143.6 161.1 143.96 161.18H143.95ZM121.85 125.02C123.88 125.48 125.42 125.04 126.01 123.93C124.51 123.68 123.15 123.83 121.85 125.02Z" fill="url(#paint2_linear_197_461)"/>
<path d="M114.58 164.22C112.24 162.86 110.1 161.28 108.72 158.75C105.47 161.88 101.38 162.47 97.2 162.88C102.11 160.56 106.29 157.45 108.83 152.22C109.68 156.9 111.68 160.76 114.58 164.22Z" fill="url(#paint3_linear_197_461)"/>
<defs>
<linearGradient id="paint0_linear_197_461" x1="144.56" y1="97.19" x2="180.65" y2="184.97" gradientUnits="userSpaceOnUse">
<stop offset="0.12" stop-color="#00A5AE"/>
<stop offset="1" stop-color="#2B3990"/>
</linearGradient>
<linearGradient id="paint1_linear_197_461" x1="78.79" y1="124.22" x2="114.88" y2="212" gradientUnits="userSpaceOnUse">
<stop offset="0.12" stop-color="#00A5AE"/>
<stop offset="1" stop-color="#2B3990"/>
</linearGradient>
<linearGradient id="paint2_linear_197_461" x1="102.56" y1="114.45" x2="138.65" y2="202.23" gradientUnits="userSpaceOnUse">
<stop offset="0.12" stop-color="#00A5AE"/>
<stop offset="1" stop-color="#2B3990"/>
</linearGradient>
<linearGradient id="paint3_linear_197_461" x1="88.14" y1="120.38" x2="124.23" y2="208.16" gradientUnits="userSpaceOnUse">
<stop offset="0.12" stop-color="#00A5AE"/>
<stop offset="1" stop-color="#2B3990"/>
</linearGradient>
</defs>
</svg>
