<svg width="230" height="50" viewBox="0 0 230 50" fill="none" xmlns="http://www.w3.org/2000/svg">
<g clip-path="url(#clip0_96_216)">
<path d="M43.1984 13.6728H48.1062C50.0186 13.6728 51.4377 13.9543 52.3635 14.5211C53.2893 15.0878 53.754 15.9682 53.754 17.1658C53.754 17.9535 53.5503 18.6236 53.1463 19.1796C52.7424 19.7356 52.2098 20.0956 51.5485 20.2525V20.3487C52.4207 20.5804 53.0534 20.9617 53.443 21.5C53.8326 22.0382 54.0292 22.7332 54.0292 23.5922C54.0292 24.8647 53.5503 25.8662 52.5923 26.6005C51.6343 27.3347 50.326 27.6983 48.671 27.6983H43.1948V13.6692L43.1984 13.6728ZM47.0017 19.0548H48.1456C48.6889 19.0548 49.1143 18.9444 49.4109 18.7198C49.7076 18.4953 49.8578 18.1638 49.8578 17.7218C49.8578 16.9341 49.2608 16.542 48.0669 16.542H46.9981V19.0548H47.0017ZM47.0017 21.8279V24.772H48.3386C49.5253 24.772 50.1187 24.273 50.1187 23.275C50.1187 22.8081 49.9614 22.4516 49.6433 22.2021C49.3252 21.9526 48.864 21.8279 48.2635 21.8279H47.0017Z" fill="white"/>
<path d="M59.2944 22.5976V27.7017H55.4946V13.6726H60.1022C63.927 13.6726 65.8358 15.0556 65.8358 17.8179C65.8358 19.4432 65.0386 20.7014 63.448 21.5889L67.548 27.7017H63.2371L60.2523 22.5976H59.2908H59.2944ZM59.2944 19.7462H60.0057C61.3318 19.7462 61.9967 19.1616 61.9967 17.989C61.9967 17.023 61.3461 16.5419 60.045 16.5419H59.2944V19.7462Z" fill="white"/>
<path d="M67.8447 27.7017V13.6726H71.6659V27.7017H67.8447Z" fill="white"/>
<path d="M79.9266 27.7017H76.1269V16.7735H72.6918V13.6726H83.3546V16.7735H79.9302V27.7017H79.9266Z" fill="white"/>
<path d="M90.5859 27.7017H86.7862V16.7735H83.3511V13.6726H94.0139V16.7735H90.5895V27.7017H90.5859Z" fill="white"/>
<path d="M108.43 27.7017H103.447L98.307 17.8179H98.2212C98.3427 19.3719 98.4035 20.5588 98.4035 21.3786V27.7017H95.0363V13.6726H100.001L105.12 23.421H105.177C105.088 22.0059 105.041 20.8725 105.041 20.0135V13.6726H108.43V27.7017Z" fill="white"/>
<path d="M118.839 27.7017H110.485V13.6726H118.839V16.713H114.289V18.9193H118.503V21.9596H114.289V24.6079H118.839V27.6981V27.7017Z" fill="white"/>
<path d="M125.341 18.8729L127.765 13.6726H131.883L127.253 22.2234V27.7017H123.425V22.3374L118.796 13.6726H122.935L125.341 18.8729Z" fill="white"/>
<path d="M144.905 27.7017H136.551V13.6726H144.905V16.713H140.354V18.9193H144.569V21.9596H140.354V24.6079H144.905V27.6981V27.7017Z" fill="white"/>
<path d="M156.593 18.1351C156.593 19.7034 156.129 20.9117 155.203 21.7671C154.277 22.6226 152.958 23.0467 151.253 23.0467H150.184V27.7017H146.384V13.6726H151.253C153.029 13.6726 154.363 14.0611 155.256 14.8346C156.146 15.608 156.593 16.7094 156.593 18.1351ZM150.184 19.9565H150.878C151.45 19.9565 151.903 19.7961 152.239 19.4753C152.575 19.1545 152.744 18.7125 152.744 18.1529C152.744 17.2048 152.218 16.7343 151.164 16.7343H150.181V19.96L150.184 19.9565Z" fill="white"/>
<path d="M168.06 18.1351C168.06 19.7034 167.596 20.9117 166.67 21.7671C165.744 22.6226 164.425 23.0467 162.72 23.0467H161.651V27.7017H157.852V13.6726H162.72C164.497 13.6726 165.83 14.0611 166.724 14.8346C167.614 15.608 168.06 16.7094 168.06 18.1351ZM161.651 19.9565H162.345C162.917 19.9565 163.371 19.7961 163.707 19.4753C164.043 19.1545 164.211 18.7125 164.211 18.1529C164.211 17.2048 163.685 16.7343 162.631 16.7343H161.648V19.96L161.651 19.9565Z" fill="white"/>
<path d="M177.669 27.7017H169.315V13.6726H177.669V16.713H173.118V18.9193H177.333V21.9596H173.118V24.6079H177.669V27.6981V27.7017Z" fill="white"/>
<path d="M182.948 22.5976V27.7017H179.149V13.6726H183.756C187.581 13.6726 189.49 15.0556 189.49 17.8179C189.49 19.4432 188.693 20.7014 187.102 21.5889L191.202 27.7017H186.891L183.906 22.5976H182.945H182.948ZM182.948 19.7462H183.66C184.986 19.7462 185.651 19.1616 185.651 17.989C185.651 17.023 185 16.5419 183.699 16.5419H182.948V19.7462Z" fill="white"/>
<path d="M200.696 23.4424C200.696 24.3121 200.474 25.0856 200.031 25.7592C199.588 26.4329 198.952 26.9568 198.115 27.3311C197.282 27.7053 196.303 27.8907 195.18 27.8907C194.244 27.8907 193.458 27.8265 192.821 27.6947C192.185 27.5628 191.524 27.3347 190.837 27.0103V23.6314C191.563 24.002 192.317 24.2907 193.1 24.501C193.883 24.7078 194.601 24.8147 195.256 24.8147C195.82 24.8147 196.235 24.7185 196.496 24.5224C196.76 24.3264 196.889 24.0769 196.889 23.7704C196.889 23.5779 196.835 23.4104 196.732 23.2678C196.625 23.1252 196.457 22.9791 196.221 22.8329C195.985 22.6868 195.363 22.3838 194.348 21.9312C193.429 21.5142 192.743 21.1114 192.285 20.7229C191.828 20.3344 191.488 19.8853 191.266 19.3791C191.045 18.873 190.934 18.2742 190.934 17.5863C190.934 16.296 191.406 15.2873 192.349 14.5638C193.293 13.8402 194.587 13.4802 196.239 13.4802C197.693 13.4802 199.18 13.8153 200.692 14.4889L199.527 17.4152C198.212 16.8128 197.075 16.5134 196.121 16.5134C195.627 16.5134 195.266 16.599 195.045 16.7736C194.819 16.9447 194.709 17.1621 194.709 17.4152C194.709 17.6897 194.852 17.9356 195.138 18.153C195.424 18.3704 196.199 18.7661 197.461 19.3435C198.673 19.8888 199.516 20.4698 199.988 21.0936C200.46 21.7173 200.696 22.5015 200.696 23.4496V23.4424Z" fill="white"/>
<path d="M215.051 20.6694C215.051 23.0289 214.472 24.8253 213.31 26.0515C212.149 27.2811 210.451 27.8942 208.21 27.8942C205.968 27.8942 204.31 27.2776 203.134 26.0408C201.958 24.8075 201.368 23.0075 201.368 20.648C201.368 18.2884 201.954 16.5312 203.123 15.298C204.292 14.0683 205.997 13.4517 208.227 13.4517C210.458 13.4517 212.163 14.0612 213.318 15.2837C214.472 16.5063 215.051 18.2991 215.051 20.6658V20.6694ZM205.368 20.6694C205.368 23.3818 206.315 24.7362 208.206 24.7362C209.168 24.7362 209.882 24.4083 210.347 23.7489C210.812 23.0895 211.044 22.063 211.044 20.6694C211.044 19.2757 210.808 18.2349 210.336 17.5649C209.865 16.8948 209.16 16.5633 208.224 16.5633C206.319 16.5633 205.364 17.932 205.364 20.6694H205.368Z" fill="white"/>
<path d="M230 27.7017H225.017L219.877 17.8179H219.791C219.913 19.3719 219.973 20.5588 219.973 21.3786V27.7017H216.606V13.6726H221.571L226.69 23.421H226.747C226.658 22.0059 226.611 20.8725 226.611 20.0135V13.6726H230V27.7017Z" fill="white"/>
<path d="M60.1559 37.7567L56.0559 35.9638V35.7001L60.1559 33.6577V34.0676L56.5957 35.8141L60.1559 37.3432V37.7567Z" fill="white"/>
<path d="M70.4148 36.6766H67.8447L66.9618 38.9008H66.472L69.0135 32.5706H69.2959L71.7874 38.9008H71.2905L70.4112 36.6766H70.4148ZM68.0055 36.281H70.2682L69.4067 34.0105C69.3352 33.8323 69.2495 33.5864 69.1458 33.2692C69.0672 33.5436 68.9814 33.7967 68.892 34.0177L68.0055 36.281Z" fill="white"/>
<path d="M82.3324 34.4096C82.3324 35.0191 82.125 35.4861 81.7104 35.8104C81.2957 36.1348 80.7059 36.2987 79.9446 36.2987H78.9687V38.9042H78.5291V32.6025H80.0768C81.5817 32.6025 82.3324 33.2049 82.3324 34.4132V34.4096ZM78.9687 35.9173H79.8373C80.5487 35.9173 81.0634 35.7997 81.3815 35.5645C81.6997 35.3292 81.8569 34.9514 81.8569 34.4239C81.8569 33.9392 81.7068 33.5792 81.4066 33.3439C81.1063 33.1087 80.6416 32.991 80.0161 32.991H78.9687V35.9138V35.9173Z" fill="white"/>
<path d="M90.0569 38.9008H89.6101V35.7999H85.9176V38.9008H85.4779V32.5991H85.9176V35.3971H89.6101V32.5991H90.0569V38.9008Z" fill="white"/>
<path d="M98.9324 35.7428C98.9324 36.7443 98.6822 37.5356 98.1818 38.1166C97.6814 38.6976 96.9879 38.9899 96.105 38.9899C95.2221 38.9899 94.5358 38.6976 94.0353 38.1166C93.5349 37.5356 93.2847 36.7408 93.2847 35.7357C93.2847 34.7305 93.5385 33.9428 94.0425 33.3654C94.5501 32.788 95.2399 32.4993 96.1157 32.4993C96.9915 32.4993 97.6885 32.788 98.1854 33.369C98.6858 33.9464 98.9324 34.7376 98.9324 35.7428ZM93.7601 35.7428C93.7601 36.6445 93.9603 37.3432 94.3642 37.835C94.7681 38.3269 95.3472 38.5728 96.1014 38.5728C96.8556 38.5728 97.4454 38.3269 97.8458 37.8386C98.2461 37.3503 98.4499 36.6517 98.4499 35.7392C98.4499 34.8268 98.2497 34.1353 97.8458 33.6505C97.4454 33.1658 96.8664 32.9234 96.1085 32.9234C95.3507 32.9234 94.7752 33.1694 94.3678 33.6577C93.9603 34.146 93.7565 34.841 93.7565 35.7392L93.7601 35.7428Z" fill="white"/>
<path d="M105.61 38.9008H102.157V32.5991H105.61V33.0055H102.596V35.39H105.442V35.7963H102.596V38.498H105.61V38.9044V38.9008Z" fill="white"/>
<path d="M113.409 38.9008H112.963L109.22 33.3049H109.184C109.22 33.9714 109.238 34.4739 109.238 34.8126V38.9008H108.812V32.5991H109.252L112.991 38.1879H113.016C112.991 37.6711 112.977 37.1792 112.977 36.7123V32.5991H113.406V38.9008H113.409Z" fill="white"/>
<path d="M116.97 38.9008V32.5991H117.409V38.9008H116.97Z" fill="white"/>
<path d="M124.841 38.9007H124.333L122.464 35.9602L120.562 38.9007H120.072L122.199 35.6144L120.265 32.5955H120.762L122.471 35.2936L124.204 32.5955H124.676L122.717 35.6037L124.837 38.8971L124.841 38.9007Z" fill="white"/>
<path d="M136.615 38.9007H136.251L134.864 34.039C134.749 33.6398 134.663 33.3119 134.603 33.0553C134.556 33.3048 134.492 33.5935 134.406 33.9178C134.32 34.2422 133.856 35.9031 133.012 38.9007H132.64L130.903 32.599H131.364L132.472 36.6588C132.515 36.8227 132.555 36.976 132.594 37.115C132.63 37.254 132.665 37.3859 132.694 37.5071C132.723 37.6283 132.751 37.7459 132.776 37.8599C132.801 37.974 132.823 38.088 132.844 38.2021C132.912 37.81 133.059 37.2184 133.284 36.42L134.363 32.5955H134.853L136.118 36.9831C136.265 37.4892 136.372 37.8956 136.433 38.2092C136.469 38.0025 136.519 37.7815 136.579 37.5498C136.64 37.3182 137.083 35.6643 137.913 32.5955H138.36L136.612 38.8971L136.615 38.9007Z" fill="white"/>
<path d="M145.827 38.9008H145.38V35.7999H141.687V38.9008H141.248V32.5991H141.687V35.3971H145.38V32.5991H145.827V38.9008Z" fill="white"/>
<path d="M154.702 35.7428C154.702 36.7443 154.452 37.5356 153.952 38.1166C153.451 38.6976 152.758 38.9899 151.875 38.9899C150.992 38.9899 150.306 38.6976 149.805 38.1166C149.305 37.5356 149.055 36.7408 149.055 35.7357C149.055 34.7305 149.308 33.9428 149.812 33.3654C150.32 32.788 151.01 32.4993 151.886 32.4993C152.761 32.4993 153.458 32.788 153.955 33.369C154.456 33.9464 154.702 34.7376 154.702 35.7428ZM149.53 35.7428C149.53 36.6445 149.73 37.3432 150.134 37.835C150.538 38.3269 151.117 38.5728 151.871 38.5728C152.626 38.5728 153.215 38.3269 153.616 37.8386C154.016 37.3503 154.22 36.6517 154.22 35.7392C154.22 34.8268 154.02 34.1353 153.616 33.6505C153.215 33.1658 152.636 32.9234 151.878 32.9234C151.121 32.9234 150.545 33.1694 150.138 33.6577C149.73 34.146 149.526 34.841 149.526 35.7392L149.53 35.7428Z" fill="white"/>
<path d="M164.6 33.9037C164.193 33.9037 163.878 34.0712 163.649 34.4027C163.421 34.7342 163.306 35.194 163.306 35.775C163.306 36.9868 163.767 37.5927 164.693 37.5927C164.972 37.5927 165.244 37.5535 165.505 37.4751C165.766 37.3967 166.03 37.304 166.295 37.1935V38.6335C165.766 38.8652 165.172 38.9828 164.504 38.9828C163.549 38.9828 162.817 38.7084 162.309 38.1559C161.801 37.6034 161.544 36.805 161.544 35.7643C161.544 35.112 161.666 34.5381 161.912 34.0427C162.159 33.5473 162.513 33.1695 162.977 32.9021C163.439 32.6348 163.985 32.5029 164.611 32.5029C165.294 32.5029 165.948 32.6526 166.57 32.9485L166.048 34.2886C165.816 34.1781 165.58 34.089 165.347 34.0142C165.115 33.9393 164.865 33.9037 164.597 33.9037H164.6Z" fill="white"/>
<path d="M175.217 35.7429C175.217 36.805 174.956 37.6106 174.434 38.163C173.912 38.7155 173.147 38.99 172.143 38.99C171.138 38.99 170.391 38.7119 169.862 38.1595C169.333 37.6034 169.068 36.7979 169.068 35.7357C169.068 34.6736 169.333 33.8859 169.858 33.3334C170.384 32.7809 171.149 32.5029 172.153 32.5029C173.158 32.5029 173.923 32.7774 174.441 33.3263C174.959 33.8752 175.22 34.6807 175.22 35.7464L175.217 35.7429ZM170.866 35.7429C170.866 36.9619 171.292 37.5714 172.143 37.5714C172.575 37.5714 172.897 37.4217 173.104 37.1258C173.311 36.83 173.419 36.3702 173.419 35.7429C173.419 35.1156 173.311 34.6486 173.101 34.3492C172.89 34.0498 172.572 33.9001 172.15 33.9001C171.292 33.9001 170.866 34.5168 170.866 35.7464V35.7429Z" fill="white"/>
<path d="M183.495 35.6179C183.495 36.6694 183.206 37.4821 182.623 38.0488C182.04 38.6155 181.225 38.9042 180.175 38.9042H178.13V32.6025H180.318C181.333 32.6025 182.115 32.8627 182.666 33.3796C183.216 33.8964 183.495 34.6449 183.495 35.6215V35.6179ZM181.722 35.6785C181.722 35.1011 181.608 34.6734 181.379 34.3954C181.15 34.1174 180.8 33.9784 180.335 33.9784H179.839V37.5106H180.217C180.736 37.5106 181.118 37.3609 181.358 37.0615C181.601 36.7621 181.722 36.3023 181.722 35.6857V35.6785Z" fill="white"/>
<path d="M190.151 38.9008H186.398V32.5991H190.151V33.9642H188.106V34.9551H190.001V36.3203H188.106V37.5107H190.151V38.8972V38.9008Z" fill="white"/>
<path d="M197.164 36.9868C197.164 37.3789 197.064 37.7246 196.868 38.0276C196.667 38.3306 196.381 38.5658 196.006 38.7333C195.631 38.9008 195.191 38.9864 194.687 38.9864C194.265 38.9864 193.911 38.9579 193.629 38.8973C193.343 38.8367 193.046 38.7369 192.739 38.5908V37.0724C193.064 37.2399 193.404 37.3682 193.754 37.4609C194.104 37.5535 194.43 37.5999 194.723 37.5999C194.977 37.5999 195.163 37.5571 195.281 37.468C195.398 37.3789 195.459 37.2684 195.459 37.1294C195.459 37.0438 195.434 36.969 195.388 36.9013C195.341 36.8371 195.263 36.773 195.159 36.7052C195.055 36.6375 194.773 36.5056 194.319 36.2989C193.908 36.1136 193.597 35.9318 193.393 35.7571C193.186 35.5825 193.036 35.3793 192.936 35.1548C192.836 34.9267 192.785 34.6593 192.785 34.3492C192.785 33.7683 192.996 33.3156 193.422 32.9912C193.847 32.6669 194.426 32.5029 195.17 32.5029C195.824 32.5029 196.492 32.6526 197.171 32.9556L196.65 34.2708C196.06 33.9999 195.549 33.8645 195.12 33.8645C194.898 33.8645 194.737 33.9037 194.637 33.9821C194.537 34.0605 194.487 34.1568 194.487 34.2708C194.487 34.3956 194.551 34.5061 194.68 34.6023C194.809 34.6985 195.155 34.8768 195.724 35.1369C196.267 35.3829 196.646 35.6431 196.86 35.9247C197.071 36.2062 197.179 36.5591 197.179 36.9833L197.164 36.9868Z" fill="white"/>
<path d="M206.215 32.5991L203.859 38.9008H203.409L205.761 32.5991H206.215Z" fill="white"/>
<path d="M208.571 37.3395L212.127 35.8105L208.571 34.0639V33.6541L212.671 35.6964V35.9602L208.571 37.753V37.3395Z" fill="white"/>
<path d="M42.9731 22.1022C41.6612 24.1802 40.0884 25.9802 37.6899 26.8427C35.2735 27.7124 32.9358 27.2455 30.5802 26.2796C31.7848 27.8407 34.0653 29.0776 38.4835 28.0225C37.7471 28.7211 36.9607 29.2308 36.0528 29.516C33.3576 30.3678 30.9662 29.6871 28.8179 27.9904C27.4596 26.914 26.5624 25.5311 26.255 23.7988C26.1799 23.3711 26.2228 22.9755 26.5445 22.6903C27.2344 22.0808 27.935 21.482 28.6714 20.926C30.6481 19.429 32.7034 18.0354 34.6158 16.4635C37.3182 14.2394 39.5058 11.5768 40.9999 8.37967C42.2153 5.77773 42.7836 3.03678 42.8659 0.181779C42.8659 0.124751 42.873 0.071286 42.8766 0.0178215C42.9123 0.0106929 42.9516 0.0035643 42.9874 0C43.1876 0.930282 43.4449 1.84987 43.5736 2.78728C44.0026 5.94525 43.0946 8.81808 41.5111 11.4984C40.8033 12.696 39.9526 13.8117 39.1662 14.9629C39.1197 15.0307 39.0733 15.0912 39.0447 15.1732C40.8856 13.555 42.4941 11.7479 43.6773 9.5844C43.2662 11.6054 42.4369 13.4338 41.2752 15.1198C40.1063 16.8164 38.6622 18.2421 36.9607 19.4575C37.8865 19.3542 40.6425 18.0211 42.3761 16.6275C43.9811 15.3336 45.3073 13.801 46.4189 11.976C45.604 16.4279 42.7515 19.1153 38.9946 21.0757C40.3673 20.9688 41.5719 20.4626 42.7122 19.6892C42.6264 19.8139 42.5477 19.9458 42.4512 20.0634C41.6469 21.0508 40.6139 21.7565 39.5129 22.366C37.7328 23.3462 35.8419 24.0056 33.808 24.2729C35.4201 24.6863 37.0394 24.804 38.6837 24.4582C40.353 24.1054 41.7578 23.2856 42.9731 22.1058V22.1022Z" fill="white"/>
<path d="M2.89538 2.80519C3.07053 2.1244 3.23496 1.48996 3.42441 0.759277C3.51377 1.75372 3.56381 2.64836 3.68177 3.5323C4.02135 6.08434 4.85422 8.47599 6.14463 10.7108C7.96049 13.8545 10.4698 16.3745 13.3366 18.5558C15.0381 19.8497 16.8146 21.0473 18.5411 22.309C18.9987 22.6441 19.4133 23.0468 19.8137 23.4496C20.0925 23.7276 20.1711 24.0841 20.0925 24.4904C19.4919 27.5058 17.5295 29.2915 14.7378 30.236C12.443 31.0131 10.2768 30.6566 8.33582 29.1561C8.22501 29.0705 8.12135 28.9743 7.97837 28.8495C8.73617 28.96 9.42605 29.0955 10.1231 29.1561C12.1713 29.3271 14.0479 28.9279 15.5314 27.3703C15.6136 27.2848 15.6886 27.1921 15.7673 27.046C10.5234 29.2523 6.53783 27.6947 3.56739 23.0718C4.78988 24.191 6.19467 24.9609 7.83538 25.2638C9.44393 25.5597 11.0346 25.4385 12.6181 25.0322C9.16511 24.4405 6.05169 23.2108 3.69965 20.4877C4.81133 21.2611 6.02667 21.753 7.41716 21.8279C7.30635 21.7566 7.19912 21.6746 7.08473 21.614C5.6013 20.812 4.21438 19.8817 3.02048 18.6806C1.44411 17.0909 0.489712 15.1769 0 12.9064C2.28055 16.5491 5.419 18.955 9.42605 20.2703C6.07314 17.7824 3.74254 14.603 2.74882 10.5183C3.91769 12.632 5.52266 14.3749 7.30278 15.9753C7.3278 15.9575 7.34925 15.9396 7.37427 15.9218C7.2992 15.822 7.22771 15.7186 7.14907 15.6224C5.5584 13.5551 4.16076 11.3738 3.34577 8.87519C2.91325 7.55283 2.67018 6.1984 2.7238 4.80119C2.7238 4.80119 2.73452 3.45032 2.89538 2.81944V2.80519Z" fill="white"/>
<path d="M32.5246 30.3606C30.455 30.5282 28.5247 30.0719 26.6695 29.1488C26.8411 29.2985 27.0127 29.4482 27.1843 29.6015C27.3558 29.7547 27.5346 29.9044 27.7026 30.0612C29.6078 31.8897 30.8875 34.0711 31.3057 36.6873C31.7954 39.7633 31.0197 42.5363 29.1038 44.9814C27.195 47.4194 24.6249 48.9093 21.6902 49.9999C22.4587 49.4403 23.1772 48.9485 23.8599 48.4138C25.5936 47.0594 27.077 45.4875 28.06 43.4951C29.3182 40.9431 29.3647 38.3162 28.5211 35.6429C28.2995 34.9408 28.01 34.26 27.6918 33.5614C28.8607 38.3625 27.1557 41.9518 23.1021 44.5822C26.1512 41.107 27.0127 37.115 25.8974 32.6632C25.8831 32.7986 25.8617 32.9305 25.8545 33.0659C25.7795 34.6628 25.5185 36.2239 24.8858 37.7031C24.4497 38.7225 23.8349 39.6136 22.9055 40.4084C22.9949 40.2124 23.0414 40.1019 23.095 39.9985C23.7634 38.7154 24.2353 37.3752 24.2496 35.9067C24.2639 34.3812 23.7134 33.0161 23.0092 31.6973C22.5231 30.7884 22.0155 29.8902 21.5544 28.9706C20.3033 26.4756 20.507 24.0055 21.7402 21.5675C21.8975 21.2539 22.0619 20.9438 22.2585 20.5588C21.8224 20.762 21.4614 20.9687 21.0754 21.097C20.6965 21.2253 20.2925 21.2752 19.9065 21.3572C20.3211 20.8974 20.7215 20.4804 21.0932 20.042C21.6652 19.3648 22.2121 18.6662 22.7733 17.9818C23.8242 16.7058 25.1718 16.1569 26.8268 16.2496C27.3737 16.2817 27.9313 16.1141 28.4854 16.0393C28.9429 15.9751 29.379 16.0036 29.8223 16.3351C29.6185 16.4207 29.4577 16.4884 29.2968 16.5525C27.6346 17.2333 26.2549 18.2563 25.4899 19.9244C24.4998 22.0808 24.8143 24.1695 26.0368 26.1298C27.4488 28.4003 29.5971 29.6478 32.1457 30.2751C32.2708 30.3072 32.3995 30.3321 32.5282 30.3606H32.5246ZM24.6213 17.4721C25.3469 17.6361 25.8974 17.4793 26.1083 17.0836C25.5721 16.9945 25.086 17.048 24.6213 17.4721Z" fill="white"/>
<path d="M22.0226 31.4442C21.1862 30.9594 20.4212 30.3962 19.9279 29.4945C18.7662 30.6101 17.3042 30.8204 15.8101 30.9665C17.5652 30.1396 19.0593 29.0311 19.9672 27.167C20.2711 28.8351 20.986 30.2109 22.0226 31.4442Z" fill="white"/>
</g>
<defs>
<clipPath id="clip0_96_216">
<rect width="230" height="50" fill="white"/>
</clipPath>
</defs>
</svg>
