<svg width="782" height="217" viewBox="0 0 782 217" fill="none" xmlns="http://www.w3.org/2000/svg">
<g opacity="0.05">
<path d="M173.82 62.5601H189.14C193.77 62.5601 197.43 63.5901 200.11 65.6401C202.79 67.6901 204.13 70.5101 204.13 74.0801C204.13 76.4801 203.58 78.4401 202.49 79.9501C201.4 81.4601 199.63 82.5301 197.19 83.1801V83.4501C199.04 83.9001 200.53 84.9001 201.66 86.4701C202.79 88.0301 203.36 89.9201 203.36 92.1201C203.36 95.4801 202.06 97.9501 199.47 99.5401C196.88 101.13 192.91 101.92 187.56 101.92H173.83V62.5601H173.82ZM187.98 79.0301C189.67 79.0301 190.95 78.6801 191.84 77.9801C192.73 77.2801 193.17 76.2701 193.17 74.9601C193.17 72.1601 191.51 70.7601 188.19 70.7601H184.45V79.0201H187.98V79.0301ZM184.45 93.8701H187.44C190.78 93.8701 192.45 92.7701 192.45 90.5601C192.45 89.3201 192.03 88.3901 191.2 87.7601C190.37 87.1301 189.19 86.8201 187.66 86.8201H184.46V93.8701H184.45Z" fill="black"/>
<path d="M221.54 76.8801L229.89 62.5601H241.95L230.48 79.7101C234.93 82.2001 237.16 85.7301 237.16 90.2901C237.16 98.0401 231.81 101.92 221.12 101.92H208.23V62.5601H218.86V76.8801H221.55H221.54ZM218.85 93.8701H220.95C224.59 93.8701 226.41 92.5201 226.41 89.8101C226.41 86.5301 224.55 84.8801 220.84 84.8801H218.85V93.8701Z" fill="black"/>
<path d="M253.45 62.5601V101.92H242.76V62.5601H253.45Z" fill="black"/>
<path d="M276.57 93.2201H286.15V101.92H256.32V93.2201H265.93V62.5601H276.56V93.2201H276.57Z" fill="black"/>
<path d="M306.38 93.2201H315.96V101.92H286.13V93.2201H295.74V62.5601H306.37V93.2201H306.38Z" fill="black"/>
<path d="M356.31 101.92H346.83V84.1301C346.83 81.7201 346.96 78.5401 347.21 74.5701H347.05L332.73 101.92H318.84V62.5601H328.26V80.3001C328.26 82.6001 328.09 85.9301 327.75 90.2901H327.99L342.37 62.5601H356.31V101.92Z" fill="black"/>
<path d="M385.42 71.23H372.69V78.66H384.48V87.19H372.69V93.38H385.42V101.91H362.05V62.55H385.42V71.22V71.23Z" fill="black"/>
<path d="M396.88 101.92H385.3L398.25 77.6101V62.5601H408.96V77.9301L421.91 101.92H410.39L403.61 87.3301L396.88 101.92Z" fill="black"/>
<path d="M458.35 71.23H445.62V78.66H457.41V87.19H445.62V93.38H458.35V101.91H434.98V62.55H458.35V71.22V71.23Z" fill="black"/>
<path d="M487.3 98.66C484.81 100.83 481.07 101.92 476.1 101.92H462.48V62.5601H473.11V75.6201H476.1C480.87 75.6201 484.56 76.8201 487.15 79.2101C489.74 81.6001 491.04 85.0001 491.04 89.4001C491.04 93.4001 489.79 96.49 487.3 98.66ZM473.11 93.3301H475.86C478.8 93.3301 480.28 92.0001 480.28 89.3501C480.28 87.7701 479.81 86.5301 478.87 85.6401C477.93 84.7401 476.66 84.2901 475.06 84.2901H473.12V93.3401L473.11 93.3301Z" fill="black"/>
<path d="M519.38 98.66C516.89 100.83 513.15 101.92 508.18 101.92H494.56V62.5601H505.19V75.6201H508.18C512.95 75.6201 516.64 76.8201 519.23 79.2101C521.82 81.6001 523.12 85.0001 523.12 89.4001C523.12 93.4001 521.87 96.49 519.38 98.66ZM505.19 93.3301H507.94C510.88 93.3301 512.36 92.0001 512.36 89.3501C512.36 87.7701 511.89 86.5301 510.95 85.6401C510.01 84.7401 508.74 84.2901 507.14 84.2901H505.2V93.3401L505.19 93.3301Z" fill="black"/>
<path d="M550 71.23H537.27V78.66H549.06V87.19H537.27V93.38H550V101.91H526.63V62.55H550V71.22V71.23Z" fill="black"/>
<path d="M567.46 76.8801L575.81 62.5601H587.87L576.4 79.7101C580.85 82.2001 583.08 85.7301 583.08 90.2901C583.08 98.0401 577.73 101.92 567.04 101.92H554.15V62.5601H564.78V76.8801H567.47H567.46ZM564.77 93.8701H566.87C570.51 93.8701 572.33 92.5201 572.33 89.8101C572.33 86.5301 570.47 84.8801 566.76 84.8801H564.77V93.8701Z" fill="black"/>
<path d="M612.45 81.12C611.13 82.87 608.78 84.51 605.38 86.03C601.84 87.65 599.68 88.76 598.88 89.37C598.08 89.98 597.68 90.67 597.68 91.44C597.68 92.16 597.99 92.76 598.62 93.24C599.25 93.72 600.25 93.97 601.63 93.97C604.3 93.97 607.48 93.13 611.16 91.44L614.42 99.65C610.18 101.53 606.03 102.48 601.96 102.48C597.35 102.48 593.72 101.47 591.08 99.44C588.44 97.41 587.12 94.59 587.12 90.96C587.12 89.02 587.43 87.34 588.05 85.93C588.67 84.51 589.62 83.26 590.9 82.16C592.18 81.07 594.11 79.93 596.67 78.77C599.51 77.5 601.25 76.65 601.91 76.24C602.56 75.83 603.04 75.42 603.34 75.02C603.64 74.62 603.78 74.14 603.78 73.61C603.78 72.75 603.41 72.04 602.68 71.5C601.95 70.96 600.79 70.68 599.21 70.68C597.38 70.68 595.37 70.97 593.18 71.55C590.99 72.13 588.88 72.95 586.85 73.99V64.51C588.77 63.59 590.62 62.95 592.4 62.59C594.18 62.22 596.38 62.04 599 62.04C602.14 62.04 604.88 62.56 607.21 63.62C609.54 64.67 611.33 66.14 612.57 68.03C613.81 69.92 614.43 72.09 614.43 74.53C614.43 77.19 613.77 79.39 612.45 81.14V81.12Z" fill="black"/>
<path d="M649.74 97.39C646.51 100.82 641.76 102.53 635.5 102.53C629.24 102.53 624.49 100.8 621.22 97.35C617.94 93.89 616.31 88.89 616.31 82.34C616.31 75.79 617.96 70.67 621.25 67.21C624.54 63.75 629.28 62.01 635.45 62.01C641.62 62.01 646.47 63.73 649.72 67.18C652.97 70.63 654.59 75.66 654.59 82.28C654.59 88.9 652.97 93.95 649.74 97.38V97.39ZM635.49 93.81C638.11 93.81 640.08 92.87 641.4 91C642.72 89.12 643.38 86.22 643.38 82.29C643.38 78.36 642.73 75.5 641.43 73.65C640.13 71.8 638.13 70.88 635.44 70.88C630.15 70.88 627.5 74.68 627.5 82.29C627.5 89.9 630.17 93.81 635.5 93.81H635.49Z" fill="black"/>
<path d="M696.4 101.92H686.92V84.1301C686.92 81.7201 687.05 78.5401 687.3 74.5701H687.14L672.82 101.92H658.93V62.5601H668.35V80.3001C668.35 82.6001 668.18 85.9301 667.84 90.2901H668.08L682.46 62.5601H696.4V101.92Z" fill="black"/>
<path d="M221.26 35.5101L211.3 39.8001L221.26 44.7001V45.8501L209.79 40.1201V39.3801L221.26 34.3501V35.5101Z" fill="black"/>
<path d="M252.41 31.1299H253.8L246.83 48.8899H246.04L238.93 31.1299H240.3L242.77 37.3699H249.96L252.42 31.1299H252.41ZM245.7 44.8399C245.96 45.4699 246.2 46.1699 246.41 46.9399C246.69 46.0499 246.93 45.3599 247.14 44.8599L249.55 38.4899H243.22L245.7 44.8399Z" fill="black"/>
<path d="M276.98 48.8199H272.65V31.1399H273.88V38.4499H276.61C278.74 38.4499 280.38 38.9099 281.55 39.8199C282.71 40.7299 283.29 42.0399 283.29 43.7499C283.29 47.1399 281.19 48.8299 276.98 48.8299V48.8199ZM273.88 47.7099H276.81C278.57 47.7099 279.87 47.3799 280.7 46.7199C281.54 46.0599 281.96 45.0499 281.96 43.6899C281.96 42.2099 281.52 41.1499 280.63 40.4899C279.74 39.8299 278.3 39.4999 276.31 39.4999H273.88V47.6999V47.7099Z" fill="black"/>
<path d="M304.9 48.8199H303.65V40.9699H293.32V48.8199H292.09V31.1399H293.32V39.8399H303.65V31.1399H304.9V48.8199Z" fill="black"/>
<path d="M327.64 46.6599C326.24 48.2799 324.31 49.0999 321.85 49.0999C319.39 49.0999 317.47 48.2899 316.05 46.6699C314.63 45.0499 313.93 42.8399 313.93 40.0199C313.93 37.1999 314.63 34.9699 316.03 33.3399C317.43 31.7099 319.36 30.8899 321.82 30.8899C324.28 30.8899 326.22 31.7099 327.63 33.3399C329.03 34.9699 329.73 37.1899 329.73 39.9999C329.73 42.8099 329.03 45.0299 327.64 46.6599ZM316.98 45.8399C318.12 47.2099 319.74 47.8999 321.85 47.8999C323.96 47.8999 325.58 47.2199 326.71 45.8599C327.84 44.4999 328.4 42.5499 328.4 39.9999C328.4 37.4499 327.84 35.4799 326.71 34.1099C325.59 32.7399 323.96 32.0499 321.83 32.0499C319.7 32.0499 318.1 32.7399 316.97 34.1199C315.84 35.4999 315.28 37.4599 315.28 39.9899C315.28 42.5199 315.85 44.4599 316.99 45.8299L316.98 45.8399Z" fill="black"/>
<path d="M348.41 32.2699H339.98V39.8499H347.94V40.9899H339.98V47.6799H348.41V48.8199H338.75V31.1399H348.41V32.2799V32.2699Z" fill="black"/>
<path d="M370.23 48.8199H369.03V37.2799C369.03 35.9699 369.07 34.5899 369.14 33.1399H369.07L358.61 48.8199H357.38V31.1399H358.57V42.6099C358.57 43.5599 358.52 44.9699 358.42 46.8399H358.52L368.99 31.1399H370.24V48.8199H370.23Z" fill="black"/>
<path d="M381.43 31.1299V48.8099H380.2V31.1299H381.43Z" fill="black"/>
<path d="M396.29 40.3799L401.77 48.8199H400.45L395.6 41.2499L390.82 48.8199H389.43L394.84 40.3499L388.89 31.1299H390.26L395.58 39.3799L400.81 31.1299H402.23L396.3 40.3699L396.29 40.3799Z" fill="black"/>
<path d="M440.04 48.8199H438.79C436.47 40.2099 435.22 35.5699 435.06 34.9199C434.89 34.2699 434.76 33.6499 434.65 33.0699C434.47 33.9399 434.18 35.0899 433.77 36.5099L430.23 48.8199H428.86L425.84 38.0899C425.21 35.8599 424.8 34.1899 424.61 33.0899C424.55 33.4099 424.49 33.7299 424.42 34.0499C424.35 34.3699 424.27 34.6999 424.19 35.0399C424.11 35.3799 424.01 35.7499 423.91 36.1399C423.81 36.5299 423.69 36.9599 423.57 37.4199L420.47 48.8099H419.18L424.04 31.1299H425.08C427.44 39.5399 428.74 44.1999 428.98 45.1099C429.22 46.0199 429.4 46.8299 429.53 47.5299C429.69 46.8099 429.93 45.8899 430.26 44.7699L434.14 31.1299H435.16L440.05 48.8099L440.04 48.8199Z" fill="black"/>
<path d="M460.93 48.8199H459.68V40.9699H449.35V48.8199H448.12V31.1399H449.35V39.8399H459.68V31.1399H460.93V48.8199Z" fill="black"/>
<path d="M483.66 46.6599C482.26 48.2799 480.33 49.0999 477.87 49.0999C475.41 49.0999 473.49 48.2899 472.07 46.6699C470.65 45.0499 469.95 42.8399 469.95 40.0199C469.95 37.1999 470.65 34.9699 472.05 33.3399C473.45 31.7099 475.38 30.8899 477.84 30.8899C480.3 30.8899 482.24 31.7099 483.65 33.3399C485.05 34.9699 485.75 37.1899 485.75 39.9999C485.75 42.8099 485.05 45.0299 483.66 46.6599ZM473 45.8399C474.14 47.2099 475.76 47.8999 477.87 47.8999C479.98 47.8999 481.6 47.2199 482.73 45.8599C483.86 44.4999 484.42 42.5499 484.42 39.9999C484.42 37.4499 483.86 35.4799 482.73 34.1099C481.61 32.7399 479.98 32.0499 477.85 32.0499C475.72 32.0499 474.12 32.7399 472.99 34.1199C471.86 35.4999 471.3 37.4599 471.3 39.9899C471.3 42.5199 471.87 44.4599 473.01 45.8299L473 45.8399Z" fill="black"/>
<path d="M515.55 44.8399C516.2 44.6299 516.86 44.3699 517.51 44.0699L518.97 47.8299C517.23 48.6599 515.4 49.0799 513.49 49.0799C511.74 49.0799 510.22 48.7099 508.92 47.9599C507.63 47.2099 506.63 46.1499 505.94 44.7599C505.25 43.3699 504.91 41.7599 504.91 39.9299C504.91 36.9999 505.62 34.7599 507.05 33.2199C508.47 31.6699 510.52 30.8999 513.19 30.8999C515.05 30.8999 516.72 31.2299 518.2 31.8799V35.9199C517.46 35.6099 516.72 35.3499 515.99 35.1299C515.26 34.9099 514.5 34.7999 513.72 34.7999C511.13 34.7999 509.84 36.4999 509.84 39.8999C509.84 41.5399 510.16 42.8199 510.8 43.7499C511.44 44.6799 512.32 45.1499 513.46 45.1499C514.21 45.1499 514.91 45.0499 515.56 44.8399H515.55Z" fill="black"/>
<path d="M540.97 46.7899C539.52 48.3299 537.39 49.0999 534.57 49.0999C531.75 49.0999 529.62 48.3199 528.15 46.7699C526.68 45.2199 525.94 42.9699 525.94 40.0299C525.94 37.0899 526.68 34.7899 528.16 33.2299C529.64 31.6699 531.77 30.8999 534.54 30.8999C537.31 30.8999 539.49 31.6699 540.95 33.2199C542.41 34.7699 543.14 37.0299 543.14 40.0099C543.14 42.9899 542.41 45.2599 540.96 46.7999L540.97 46.7899ZM534.57 45.1799C535.75 45.1799 536.63 44.7599 537.23 43.9199C537.83 43.0799 538.12 41.7699 538.12 40.0099C538.12 38.2499 537.83 36.9599 537.24 36.1299C536.66 35.2999 535.76 34.8799 534.55 34.8799C532.17 34.8799 530.98 36.5899 530.98 40.0099C530.98 43.4299 532.18 45.1899 534.57 45.1899V45.1799Z" fill="black"/>
<path d="M563.99 46.6399C562.45 48.0899 560.25 48.8199 557.42 48.8199H551.3V31.1399H557.02C559.96 31.1399 562.25 31.9399 563.87 33.5399C565.49 35.1399 566.31 37.4099 566.31 40.3599C566.31 43.0999 565.54 45.1999 563.99 46.6499V46.6399ZM560.33 36.3199C559.65 35.4799 558.59 35.0599 557.14 35.0599H556.08V44.9699H557.47C558.78 44.9699 559.75 44.5799 560.39 43.7999C561.03 43.0199 561.35 41.8199 561.35 40.1999C561.35 38.4699 561.01 37.1799 560.33 36.3399V36.3199Z" fill="black"/>
<path d="M584.93 35.0299H579.21V38.3699H584.51V42.1999H579.21V44.9799H584.93V48.8099H574.43V31.1299H584.93V35.0299Z" fill="black"/>
<path d="M603.65 39.4699C603.06 40.2599 602 40.9899 600.47 41.6799C598.88 42.4099 597.91 42.9099 597.55 43.1799C597.19 43.4499 597.01 43.7599 597.01 44.1099C597.01 44.4299 597.15 44.6999 597.43 44.9199C597.71 45.1399 598.16 45.2499 598.78 45.2499C599.98 45.2499 601.41 44.8699 603.06 44.1099L604.52 47.7999C602.62 48.6499 600.75 49.0699 598.92 49.0699C596.85 49.0699 595.22 48.6099 594.03 47.6999C592.84 46.7899 592.25 45.5199 592.25 43.8899C592.25 43.0199 592.39 42.2699 592.67 41.6299C592.95 40.9899 593.38 40.4299 593.95 39.9399C594.53 39.4499 595.39 38.9399 596.54 38.4199C597.81 37.8499 598.6 37.4699 598.89 37.2799C599.18 37.0899 599.4 36.9099 599.53 36.7299C599.66 36.5499 599.73 36.3399 599.73 36.0999C599.73 35.7099 599.56 35.3999 599.23 35.1499C598.9 34.8999 598.38 34.7799 597.67 34.7799C596.85 34.7799 595.94 34.9099 594.96 35.1699C593.98 35.4299 593.03 35.7999 592.12 36.2599V31.9999C592.98 31.5899 593.81 31.2999 594.61 31.1299C595.41 30.9599 596.4 30.8799 597.57 30.8799C598.98 30.8799 600.21 31.1199 601.26 31.5899C602.31 32.0599 603.11 32.7199 603.67 33.5699C604.23 34.4199 604.5 35.3899 604.5 36.4899C604.5 37.6799 604.2 38.6699 603.61 39.4599L603.65 39.4699Z" fill="black"/>
<path d="M628.59 48.8199L622.01 31.1399H623.27L629.86 48.8199H628.59Z" fill="black"/>
<path d="M636.45 34.3501L647.92 39.3801V40.1201L636.45 45.8501V44.7001L646.4 39.8001L636.45 35.5101V34.3501Z" fill="black"/>
<path d="M173.18 78.26C169.51 72.43 165.11 67.38 158.4 64.96C151.64 62.52 145.1 63.83 138.51 66.54C141.88 62.16 148.26 58.69 160.62 61.65C158.56 59.69 156.36 58.26 153.82 57.46C146.28 55.07 139.59 56.98 133.58 61.74C129.78 64.76 127.27 68.64 126.41 73.5C126.2 74.7 126.32 75.81 127.22 76.61C129.15 78.32 131.11 80 133.17 81.56C138.7 85.76 144.45 89.67 149.8 94.08C157.36 100.32 163.48 107.79 167.66 116.76C171.06 124.06 172.65 131.75 172.88 139.76C172.88 139.92 172.9 140.07 172.91 140.22C173.01 140.24 173.12 140.26 173.22 140.27C173.78 137.66 174.5 135.08 174.86 132.45C176.06 123.59 173.52 115.53 169.09 108.01C167.11 104.65 164.73 101.52 162.53 98.29C162.4 98.1 162.27 97.93 162.19 97.7C167.34 102.24 171.84 107.31 175.15 113.38C174 107.71 171.68 102.58 168.43 97.85C165.16 93.09 161.12 89.09 156.36 85.68C158.95 85.97 166.66 89.71 171.51 93.62C176 97.25 179.71 101.55 182.82 106.67C180.54 94.18 172.56 86.64 162.05 81.14C165.89 81.44 169.26 82.86 172.45 85.03C172.21 84.68 171.99 84.31 171.72 83.98C169.47 81.21 166.58 79.23 163.5 77.52C158.52 74.77 153.23 72.92 147.54 72.17C152.05 71.01 156.58 70.68 161.18 71.65C165.85 72.64 169.78 74.94 173.18 78.25V78.26Z" fill="url(#paint0_linear_197_459)"/>
<path d="M61.06 132.41C61.55 134.32 62.01 136.1 62.54 138.15C62.79 135.36 62.93 132.85 63.26 130.37C64.21 123.21 66.54 116.5 70.15 110.23C75.23 101.41 82.25 94.34 90.27 88.22C95.03 84.59 100 81.23 104.83 77.69C106.11 76.75 107.27 75.62 108.39 74.49C109.17 73.71 109.39 72.71 109.17 71.57C107.49 63.11 102 58.1 94.19 55.45C87.77 53.27 81.71 54.27 76.28 58.48C75.97 58.72 75.68 58.99 75.28 59.34C77.4 59.03 79.33 58.65 81.28 58.48C87.01 58 92.26 59.12 96.41 63.49C96.64 63.73 96.85 63.99 97.07 64.4C82.4 58.21 71.25 62.58 62.94 75.55C66.36 72.41 70.29 70.25 74.88 69.4C79.38 68.57 83.83 68.91 88.26 70.05C78.6 71.71 69.89 75.16 63.31 82.8C66.42 80.63 69.82 79.25 73.71 79.04C73.4 79.24 73.1 79.47 72.78 79.64C68.63 81.89 64.75 84.5 61.41 87.87C57 92.33 54.33 97.7 52.96 104.07C59.34 93.85 68.12 87.1 79.33 83.41C69.95 90.39 63.43 99.31 60.65 110.77C63.92 104.84 68.41 99.95 73.39 95.46C73.46 95.51 73.52 95.56 73.59 95.61C73.38 95.89 73.18 96.18 72.96 96.45C68.51 102.25 64.6 108.37 62.32 115.38C61.11 119.09 60.43 122.89 60.58 126.81C60.58 126.81 60.61 130.6 61.06 132.37V132.41Z" fill="url(#paint1_linear_197_459)"/>
<path d="M142.88 55.34C135.74 57.1 129.74 60.6 125.79 66.97C122.38 72.47 121.49 78.33 124.26 84.38C126.4 89.06 130.26 91.93 134.91 93.84C135.36 94.02 135.8 94.21 136.38 94.45C135.14 95.38 133.91 95.45 132.64 95.28C131.09 95.07 129.53 94.6 128 94.69C123.37 94.95 119.6 93.41 116.66 89.83C115.08 87.91 113.55 85.95 111.96 84.05C110.92 82.81 109.81 81.64 108.64 80.36C109.71 80.59 110.85 80.73 111.91 81.09C112.99 81.45 114 82.03 115.22 82.6C114.66 81.52 114.21 80.65 113.77 79.77C110.33 72.93 109.75 66 113.25 59C114.54 56.42 115.96 53.89 117.32 51.35C119.3 47.65 120.83 43.82 120.79 39.54C120.75 35.43 119.43 31.67 117.56 28.06C117.41 27.77 117.28 27.46 117.03 26.91C119.63 29.14 121.35 31.64 122.57 34.5C124.34 38.65 125.07 43.03 125.28 47.51C125.3 47.89 125.36 48.26 125.4 48.64C128.52 36.15 126.11 24.96 117.58 15.2C128.92 22.58 133.69 32.66 130.42 46.12C131.32 44.16 132.12 42.25 132.74 40.28C135.1 32.78 134.97 25.41 131.45 18.25C128.7 12.67 124.55 8.25 119.7 4.45C117.79 2.95 115.78 1.57 113.63 0C121.84 3.06 129.03 7.24 134.37 14.08C139.72 20.94 141.9 28.73 140.53 37.35C139.36 44.7 135.79 50.82 130.45 55.94C129.98 56.39 129.49 56.8 129 57.23C128.52 57.65 128.04 58.07 127.56 58.5C132.75 55.91 138.15 54.63 143.94 55.1C143.58 55.18 143.23 55.25 142.87 55.34H142.88ZM126.01 92.35C125.42 91.23 123.89 90.8 121.85 91.26C123.15 92.45 124.51 92.61 126.01 92.35Z" fill="url(#paint2_linear_197_459)"/>
<path d="M114.58 52.0601C112.24 53.4201 110.1 55.0001 108.72 57.5301C105.47 54.4001 101.38 53.8101 97.2 53.4001C102.11 55.7201 106.29 58.8301 108.83 64.0601C109.68 59.3801 111.68 55.5201 114.58 52.0601Z" fill="url(#paint3_linear_197_459)"/>
</g>
<path d="M781.95 16.54H0V216.27H781.95V16.54Z" fill="url(#paint4_linear_197_459)"/>
<defs>
<linearGradient id="paint0_linear_197_459" x1="-0.000127098" y1="119.09" x2="180.65" y2="31.31" gradientUnits="userSpaceOnUse">
<stop offset="0.12" stop-color="#00A5AE"/>
<stop offset="1" stop-color="#2B3990"/>
</linearGradient>
<linearGradient id="paint1_linear_197_459" x1="78.79" y1="92.06" x2="114.88" y2="4.26996" gradientUnits="userSpaceOnUse">
<stop offset="0.12" stop-color="#00A5AE"/>
<stop offset="1" stop-color="#2B3990"/>
</linearGradient>
<linearGradient id="paint2_linear_197_459" x1="102.56" y1="101.83" x2="138.65" y2="14.04" gradientUnits="userSpaceOnUse">
<stop offset="0.12" stop-color="#00A5AE"/>
<stop offset="1" stop-color="#2B3990"/>
</linearGradient>
<linearGradient id="paint3_linear_197_459" x1="88.14" y1="95.9001" x2="124.23" y2="8.12005" gradientUnits="userSpaceOnUse">
<stop offset="0.12" stop-color="#00A5AE"/>
<stop offset="1" stop-color="#2B3990"/>
</linearGradient>
<linearGradient id="paint4_linear_197_459" x1="390.97" y1="201.41" x2="390.97" y2="25.99" gradientUnits="userSpaceOnUse">
<stop offset="0.12" stop-color="white"/>
<stop offset="1" stop-color="white" stop-opacity="0"/>
</linearGradient>
</defs>
</svg>
