<svg width="782" height="359" viewBox="0 0 782 359" fill="none" xmlns="http://www.w3.org/2000/svg">
<g clip-path="url(#clip0_96_92)">
<path d="M173.82 38.3601H187.55C192.9 38.3601 196.87 39.1501 199.46 40.7401C202.05 42.3301 203.35 44.8001 203.35 48.1601C203.35 50.3701 202.78 52.2501 201.65 53.8101C200.52 55.3701 199.03 56.3801 197.18 56.8201V57.0901C199.62 57.7401 201.39 58.8101 202.48 60.3201C203.57 61.8301 204.12 63.7801 204.12 66.1901C204.12 69.7601 202.78 72.5701 200.1 74.6301C197.42 76.6901 193.76 77.7101 189.13 77.7101H173.81V38.3501L173.82 38.3601ZM184.45 53.4601H187.65C189.17 53.4601 190.36 53.1501 191.19 52.5201C192.02 51.8901 192.44 50.9601 192.44 49.7201C192.44 47.5101 190.77 46.4101 187.43 46.4101H184.44V53.4601H184.45ZM184.45 61.2401V69.5001H188.19C191.51 69.5001 193.17 68.1001 193.17 65.3001C193.17 63.9901 192.73 62.9901 191.84 62.2901C190.95 61.5901 189.66 61.2401 187.98 61.2401H184.45Z" fill="black"/>
<path d="M218.85 63.4001V77.7201H208.22V38.3601H221.11C231.81 38.3601 237.15 42.2401 237.15 49.9901C237.15 54.5501 234.92 58.0801 230.47 60.5701L241.94 77.7201H229.88L221.53 63.4001H218.84H218.85ZM218.85 55.4001H220.84C224.55 55.4001 226.41 53.7601 226.41 50.4701C226.41 47.7601 224.59 46.4101 220.95 46.4101H218.85V55.4001Z" fill="black"/>
<path d="M242.77 77.7201V38.3601H253.46V77.7201H242.77Z" fill="black"/>
<path d="M276.57 77.7201H265.94V47.0601H256.33V38.3601H286.16V47.0601H276.58V77.7201H276.57Z" fill="black"/>
<path d="M306.38 77.7201H295.75V47.0601H286.14V38.3601H315.97V47.0601H306.39V77.7201H306.38Z" fill="black"/>
<path d="M356.31 77.7201H342.37L327.99 49.9901H327.75C328.09 54.3501 328.26 57.6801 328.26 59.9801V77.7201H318.84V38.3601H332.73L347.05 65.7101H347.21C346.96 61.7401 346.83 58.5601 346.83 56.1501V38.3601H356.31V77.7201Z" fill="black"/>
<path d="M385.42 77.7201H362.05V38.3601H385.42V46.8901H372.69V53.0801H384.48V61.6101H372.69V69.0401H385.42V77.7101V77.7201Z" fill="black"/>
<path d="M403.61 52.9501L410.39 38.3601H421.91L408.96 62.3501V77.7201H398.25V62.6701L385.3 38.3601H396.88L403.61 52.9501Z" fill="black"/>
<path d="M458.35 77.7201H434.98V38.3601H458.35V46.8901H445.62V53.0801H457.41V61.6101H445.62V69.0401H458.35V77.7101V77.7201Z" fill="black"/>
<path d="M491.04 50.8801C491.04 55.2801 489.74 58.6701 487.15 61.0701C484.56 63.4701 480.87 64.6601 476.1 64.6601H473.11V77.7201H462.48V38.3601H476.1C481.07 38.3601 484.8 39.4501 487.3 41.6201C489.79 43.7901 491.04 46.8801 491.04 50.8801ZM473.11 55.9901H475.05C476.65 55.9901 477.92 55.5401 478.86 54.6401C479.8 53.7401 480.27 52.5001 480.27 50.9301C480.27 48.2701 478.8 46.9501 475.85 46.9501H473.1V56.0001L473.11 55.9901Z" fill="black"/>
<path d="M523.12 50.8801C523.12 55.2801 521.82 58.6701 519.23 61.0701C516.64 63.4701 512.95 64.6601 508.18 64.6601H505.19V77.7201H494.56V38.3601H508.18C513.15 38.3601 516.88 39.4501 519.38 41.6201C521.87 43.7901 523.12 46.8801 523.12 50.8801ZM505.19 55.9901H507.13C508.73 55.9901 510 55.5401 510.94 54.6401C511.88 53.7401 512.35 52.5001 512.35 50.9301C512.35 48.2701 510.88 46.9501 507.93 46.9501H505.18V56.0001L505.19 55.9901Z" fill="black"/>
<path d="M550 77.7201H526.63V38.3601H550V46.8901H537.27V53.0801H549.06V61.6101H537.27V69.0401H550V77.7101V77.7201Z" fill="black"/>
<path d="M564.77 63.4001V77.7201H554.14V38.3601H567.03C577.73 38.3601 583.07 42.2401 583.07 49.9901C583.07 54.5501 580.84 58.0801 576.39 60.5701L587.86 77.7201H575.8L567.45 63.4001H564.76H564.77ZM564.77 55.4001H566.76C570.47 55.4001 572.33 53.7601 572.33 50.4701C572.33 47.7601 570.51 46.4101 566.87 46.4101H564.77V55.4001Z" fill="black"/>
<path d="M614.43 65.7701C614.43 68.2101 613.81 70.3801 612.57 72.2701C611.33 74.1601 609.55 75.6301 607.21 76.6801C604.88 77.7301 602.14 78.2501 599 78.2501C596.38 78.2501 594.18 78.0701 592.4 77.7001C590.62 77.3301 588.77 76.6901 586.85 75.7801V66.3001C588.88 67.3401 590.99 68.1501 593.18 68.7401C595.37 69.3201 597.38 69.6201 599.21 69.6201C600.79 69.6201 601.95 69.3501 602.68 68.8001C603.42 68.2501 603.78 67.5501 603.78 66.6901C603.78 66.1501 603.63 65.6801 603.34 65.2801C603.04 64.8801 602.57 64.4701 601.91 64.0601C601.25 63.6501 599.51 62.8001 596.67 61.5301C594.1 60.3601 592.18 59.2301 590.9 58.1401C589.62 57.0501 588.67 55.7901 588.05 54.3701C587.43 52.9501 587.12 51.2701 587.12 49.3401C587.12 45.7201 588.44 42.8901 591.08 40.8601C593.72 38.8301 597.34 37.8201 601.96 37.8201C606.03 37.8201 610.19 38.7601 614.42 40.6501L611.16 48.8601C607.48 47.1701 604.3 46.3301 601.63 46.3301C600.25 46.3301 599.24 46.5701 598.62 47.0601C597.99 47.5401 597.68 48.1501 597.68 48.8601C597.68 49.6301 598.08 50.3201 598.88 50.9301C599.68 51.5401 601.85 52.6501 605.38 54.2701C608.77 55.8001 611.13 57.4301 612.45 59.1801C613.77 60.9301 614.43 63.1301 614.43 65.7901V65.7701Z" fill="black"/>
<path d="M654.58 57.99C654.58 64.61 652.96 69.65 649.71 73.09C646.46 76.54 641.71 78.26 635.44 78.26C629.17 78.26 624.53 76.53 621.24 73.06C617.95 69.6 616.3 64.55 616.3 57.93C616.3 51.31 617.94 46.38 621.21 42.92C624.48 39.47 629.25 37.74 635.49 37.74C641.73 37.74 646.5 39.45 649.73 42.88C652.96 46.31 654.58 51.34 654.58 57.98V57.99ZM627.5 57.99C627.5 65.6 630.15 69.4 635.44 69.4C638.13 69.4 640.13 68.48 641.43 66.63C642.73 64.78 643.38 61.9 643.38 57.99C643.38 54.08 642.72 51.16 641.4 49.28C640.08 47.4 638.11 46.47 635.49 46.47C630.16 46.47 627.49 50.31 627.49 57.99H627.5Z" fill="black"/>
<path d="M696.4 77.7201H682.46L668.08 49.9901H667.84C668.18 54.3501 668.35 57.6801 668.35 59.9801V77.7201H658.93V38.3601H672.82L687.14 65.7101H687.3C687.05 61.7401 686.92 58.5601 686.92 56.1501V38.3601H696.4V77.7201Z" fill="black"/>
<path d="M221.26 105.93L209.79 100.9V100.16L221.26 94.4299V95.5799L211.3 100.48L221.26 104.77V105.93Z" fill="black"/>
<path d="M249.95 102.9H242.76L240.29 109.14H238.92L246.03 91.3799H246.82L253.79 109.14H252.4L249.94 102.9H249.95ZM243.22 101.79H249.55L247.14 95.4199C246.94 94.9199 246.7 94.2299 246.41 93.3399C246.19 94.1099 245.95 94.8199 245.7 95.4399L243.22 101.79Z" fill="black"/>
<path d="M283.29 96.54C283.29 98.25 282.71 99.56 281.55 100.47C280.39 101.38 278.74 101.84 276.61 101.84H273.88V109.15H272.65V91.47H276.98C281.19 91.47 283.29 93.16 283.29 96.55V96.54ZM273.88 100.77H276.31C278.3 100.77 279.74 100.44 280.63 99.78C281.52 99.12 281.96 98.06 281.96 96.58C281.96 95.22 281.54 94.21 280.7 93.55C279.86 92.89 278.56 92.56 276.81 92.56H273.88V100.76V100.77Z" fill="black"/>
<path d="M304.9 109.14H303.65V100.44H293.32V109.14H292.09V91.46H293.32V99.31H303.65V91.46H304.9V109.14Z" fill="black"/>
<path d="M329.73 100.28C329.73 103.09 329.03 105.31 327.63 106.94C326.23 108.57 324.29 109.39 321.82 109.39C319.35 109.39 317.43 108.57 316.03 106.94C314.63 105.31 313.93 103.08 313.93 100.26C313.93 97.4399 314.64 95.2299 316.05 93.6099C317.47 91.9899 319.4 91.1799 321.85 91.1799C324.3 91.1799 326.25 91.9899 327.64 93.6199C329.04 95.2399 329.73 97.4599 329.73 100.28ZM315.26 100.28C315.26 102.81 315.82 104.77 316.95 106.15C318.08 107.53 319.7 108.22 321.81 108.22C323.92 108.22 325.57 107.53 326.69 106.16C327.81 104.79 328.38 102.83 328.38 100.27C328.38 97.7099 327.82 95.7699 326.69 94.4099C325.57 93.0499 323.95 92.3699 321.83 92.3699C319.71 92.3699 318.1 93.0599 316.96 94.4299C315.82 95.7999 315.25 97.7499 315.25 100.27L315.26 100.28Z" fill="black"/>
<path d="M348.41 109.14H338.75V91.46H348.41V92.6H339.98V99.29H347.94V100.43H339.98V108.01H348.41V109.15V109.14Z" fill="black"/>
<path d="M370.23 109.14H368.98L358.51 93.44H358.41C358.51 95.31 358.56 96.72 358.56 97.67V109.14H357.37V91.46H358.6L369.06 107.14H369.13C369.06 105.69 369.02 104.31 369.02 103V91.46H370.22V109.14H370.23Z" fill="black"/>
<path d="M380.19 109.14V91.46H381.42V109.14H380.19Z" fill="black"/>
<path d="M402.21 109.14H400.79L395.56 100.89L390.24 109.14H388.87L394.82 99.92L389.41 91.45H390.8L395.58 99.02L400.43 91.45H401.75L396.27 99.89L402.2 109.13L402.21 109.14Z" fill="black"/>
<path d="M435.15 109.14H434.13L430.25 95.5C429.93 94.38 429.69 93.46 429.52 92.74C429.39 93.44 429.21 94.25 428.97 95.16C428.73 96.07 427.43 100.73 425.07 109.14H424.03L419.17 91.46H420.46L423.56 102.85C423.68 103.31 423.79 103.74 423.9 104.13C424 104.52 424.1 104.89 424.18 105.23C424.26 105.57 424.34 105.9 424.41 106.22C424.48 106.54 424.54 106.86 424.6 107.18C424.79 106.08 425.2 104.42 425.83 102.18L428.85 91.45H430.22L433.76 103.76C434.17 105.18 434.47 106.32 434.64 107.2C434.74 106.62 434.88 106 435.05 105.35C435.22 104.7 436.46 100.06 438.78 91.45H440.03L435.14 109.13L435.15 109.14Z" fill="black"/>
<path d="M460.93 109.14H459.68V100.44H449.35V109.14H448.12V91.46H449.35V99.31H459.68V91.46H460.93V109.14Z" fill="black"/>
<path d="M485.75 100.28C485.75 103.09 485.05 105.31 483.65 106.94C482.25 108.57 480.31 109.39 477.84 109.39C475.37 109.39 473.45 108.57 472.05 106.94C470.65 105.31 469.95 103.08 469.95 100.26C469.95 97.4399 470.66 95.2299 472.07 93.6099C473.49 91.9899 475.42 91.1799 477.87 91.1799C480.32 91.1799 482.27 91.9899 483.66 93.6199C485.06 95.2399 485.75 97.4599 485.75 100.28ZM471.29 100.28C471.29 102.81 471.85 104.77 472.98 106.15C474.11 107.53 475.73 108.22 477.84 108.22C479.95 108.22 481.6 107.53 482.72 106.16C483.84 104.79 484.41 102.83 484.41 100.27C484.41 97.7099 483.85 95.7699 482.72 94.4099C481.6 93.0499 479.98 92.3699 477.86 92.3699C475.74 92.3699 474.13 93.0599 472.99 94.4299C471.85 95.7999 471.28 97.7499 471.28 100.27L471.29 100.28Z" fill="black"/>
<path d="M513.44 95.1199C512.3 95.1199 511.42 95.5899 510.78 96.5199C510.14 97.4499 509.82 98.7399 509.82 100.37C509.82 103.77 511.11 105.47 513.7 105.47C514.48 105.47 515.24 105.36 515.97 105.14C516.7 104.92 517.44 104.66 518.18 104.35V108.39C516.7 109.04 515.04 109.37 513.17 109.37C510.5 109.37 508.45 108.6 507.03 107.05C505.61 105.5 504.89 103.26 504.89 100.34C504.89 98.5099 505.23 96.8999 505.92 95.5099C506.61 94.1199 507.6 93.0599 508.9 92.3099C510.19 91.5599 511.72 91.1899 513.47 91.1899C515.38 91.1899 517.21 91.6099 518.95 92.4399L517.49 96.1999C516.84 95.8899 516.18 95.6399 515.53 95.4299C514.88 95.2199 514.18 95.1199 513.43 95.1199H513.44Z" fill="black"/>
<path d="M543.15 100.28C543.15 103.26 542.42 105.52 540.96 107.07C539.5 108.62 537.36 109.39 534.55 109.39C531.74 109.39 529.65 108.61 528.17 107.06C526.69 105.5 525.95 103.24 525.95 100.26C525.95 97.2799 526.69 95.0699 528.16 93.5199C529.63 91.9699 531.77 91.1899 534.58 91.1899C537.39 91.1899 539.53 91.9599 540.98 93.4999C542.43 95.0399 543.16 97.2999 543.16 100.29L543.15 100.28ZM530.98 100.28C530.98 103.7 532.17 105.41 534.55 105.41C535.76 105.41 536.66 104.99 537.24 104.16C537.82 103.33 538.12 102.04 538.12 100.28C538.12 98.5199 537.82 97.2099 537.23 96.3699C536.64 95.5299 535.75 95.1099 534.57 95.1099C532.17 95.1099 530.98 96.8399 530.98 100.29V100.28Z" fill="black"/>
<path d="M566.31 99.93C566.31 102.88 565.5 105.16 563.87 106.75C562.24 108.34 559.96 109.15 557.02 109.15H551.3V91.47H557.42C560.26 91.47 562.45 92.2 563.99 93.65C565.53 95.1 566.31 97.2 566.31 99.94V99.93ZM561.35 100.1C561.35 98.48 561.03 97.28 560.39 96.5C559.75 95.72 558.77 95.33 557.47 95.33H556.08V105.24H557.14C558.59 105.24 559.66 104.82 560.33 103.98C561.01 103.14 561.35 101.85 561.35 100.12V100.1Z" fill="black"/>
<path d="M584.93 109.14H574.43V91.46H584.93V95.29H579.21V98.07H584.51V101.9H579.21V105.24H584.93V109.13V109.14Z" fill="black"/>
<path d="M604.54 103.77C604.54 104.87 604.26 105.84 603.71 106.69C603.15 107.54 602.35 108.2 601.3 108.67C600.25 109.14 599.02 109.38 597.61 109.38C596.43 109.38 595.44 109.3 594.65 109.13C593.85 108.96 593.02 108.68 592.16 108.27V104.01C593.07 104.48 594.02 104.84 595 105.1C595.98 105.36 596.89 105.49 597.71 105.49C598.42 105.49 598.94 105.37 599.27 105.12C599.6 104.87 599.77 104.56 599.77 104.17C599.77 103.93 599.7 103.72 599.57 103.53C599.44 103.35 599.22 103.17 598.93 102.98C598.64 102.79 597.85 102.42 596.58 101.84C595.43 101.32 594.56 100.81 593.99 100.32C593.41 99.8299 592.99 99.2599 592.71 98.6299C592.43 97.9899 592.29 97.2399 592.29 96.3699C592.29 94.7399 592.88 93.4699 594.07 92.5599C595.26 91.6499 596.88 91.1899 598.96 91.1899C600.79 91.1899 602.66 91.6099 604.56 92.4599L603.1 96.1499C601.45 95.3899 600.02 95.0099 598.82 95.0099C598.2 95.0099 597.75 95.1199 597.47 95.3399C597.19 95.5599 597.05 95.8299 597.05 96.1499C597.05 96.4999 597.23 96.8099 597.59 97.0799C597.95 97.3499 598.92 97.8499 600.51 98.5799C602.03 99.2699 603.09 99.9999 603.69 100.79C604.28 101.58 604.58 102.57 604.58 103.76L604.54 103.77Z" fill="black"/>
<path d="M629.86 91.46L623.27 109.14H622.01L628.59 91.46H629.86Z" fill="black"/>
<path d="M636.45 104.76L646.4 100.47L636.45 95.5699V94.4199L647.92 100.15V100.89L636.45 105.92V104.76Z" fill="black"/>
<path d="M173.18 62.01C169.51 67.84 165.11 72.89 158.4 75.31C151.64 77.75 145.1 76.44 138.51 73.73C141.88 78.11 148.26 81.58 160.62 78.62C158.56 80.58 156.36 82.01 153.82 82.81C146.28 85.2 139.59 83.29 133.58 78.53C129.78 75.51 127.27 71.63 126.41 66.77C126.2 65.57 126.32 64.46 127.22 63.66C129.15 61.95 131.11 60.27 133.17 58.71C138.7 54.51 144.45 50.6 149.8 46.19C157.36 39.95 163.48 32.48 167.66 23.51C171.06 16.21 172.65 8.52 172.88 0.51C172.88 0.35 172.9 0.2 172.91 0.05C173.01 0.03 173.12 0.01 173.22 0C173.78 2.61 174.5 5.19 174.86 7.82C176.06 16.68 173.52 24.74 169.09 32.26C167.11 35.62 164.73 38.75 162.53 41.98C162.4 42.17 162.27 42.34 162.19 42.57C167.34 38.03 171.84 32.96 175.15 26.89C174 32.56 171.68 37.69 168.43 42.42C165.16 47.18 161.12 51.18 156.36 54.59C158.95 54.3 166.66 50.56 171.51 46.65C176 43.02 179.71 38.72 182.82 33.6C180.54 46.09 172.56 53.63 162.05 59.13C165.89 58.83 169.26 57.41 172.45 55.24C172.21 55.59 171.99 55.96 171.72 56.29C169.47 59.06 166.58 61.04 163.5 62.75C158.52 65.5 153.23 67.35 147.54 68.1C152.05 69.26 156.58 69.59 161.18 68.62C165.85 67.63 169.78 65.33 173.18 62.02V62.01Z" fill="url(#paint0_linear_96_92)"/>
<path d="M61.06 7.86988C61.55 5.95988 62.01 4.17988 62.54 2.12988C62.79 4.91988 62.93 7.42988 63.26 9.90988C64.21 17.0699 66.54 23.7799 70.15 30.0499C75.23 38.8699 82.25 45.9399 90.27 52.0599C95.03 55.6899 100 59.0499 104.83 62.5899C106.11 63.5299 107.27 64.6599 108.39 65.7899C109.17 66.5699 109.39 67.5699 109.17 68.7099C107.49 77.1699 102 82.1799 94.19 84.8299C87.77 87.0099 81.71 86.0099 76.28 81.7999C75.97 81.5599 75.68 81.2899 75.28 80.9399C77.4 81.2499 79.33 81.6299 81.28 81.7999C87.01 82.2799 92.26 81.1599 96.41 76.7899C96.64 76.5499 96.85 76.2899 97.07 75.8799C82.4 82.0699 71.25 77.6999 62.94 64.7299C66.36 67.8699 70.29 70.0299 74.88 70.8799C79.38 71.7099 83.83 71.3699 88.26 70.2299C78.6 68.5699 69.89 65.1199 63.31 57.4799C66.42 59.6499 69.82 61.0299 73.71 61.2399C73.4 61.0399 73.1 60.8099 72.78 60.6399C68.63 58.3899 64.75 55.7799 61.41 52.4099C57 47.9499 54.33 42.5799 52.96 36.2099C59.34 46.4299 68.12 53.1799 79.33 56.8699C69.95 49.8899 63.43 40.9699 60.65 29.5099C63.92 35.4399 68.41 40.3299 73.39 44.8199C73.46 44.7699 73.52 44.7199 73.59 44.6699C73.38 44.3899 73.18 44.0999 72.96 43.8299C68.51 38.0299 64.6 31.9099 62.32 24.8999C61.11 21.1899 60.43 17.3899 60.58 13.4699C60.58 13.4699 60.61 9.67988 61.06 7.90988V7.86988Z" fill="url(#paint1_linear_96_92)"/>
<path d="M143.95 85.18C138.16 85.65 132.76 84.37 127.57 81.78C128.05 82.2 128.53 82.62 129.01 83.05C129.49 83.48 129.99 83.9 130.46 84.34C135.79 89.47 139.37 95.59 140.54 102.93C141.91 111.56 139.74 119.34 134.38 126.2C129.04 133.04 121.85 137.22 113.64 140.28C115.79 138.71 117.8 137.33 119.71 135.83C124.56 132.03 128.71 127.62 131.46 122.03C134.98 114.87 135.11 107.5 132.75 100C132.13 98.03 131.32 96.12 130.43 94.16C133.7 107.63 128.93 117.7 117.59 125.08C126.12 115.33 128.53 104.13 125.41 91.64C125.37 92.02 125.31 92.3899 125.29 92.77C125.08 97.25 124.35 101.63 122.58 105.78C121.36 108.64 119.64 111.14 117.04 113.37C117.29 112.82 117.42 112.51 117.57 112.22C119.44 108.62 120.76 104.86 120.8 100.74C120.84 96.46 119.3 92.63 117.33 88.93C115.97 86.38 114.55 83.86 113.26 81.28C109.76 74.28 110.33 67.35 113.78 60.51C114.22 59.63 114.68 58.76 115.23 57.68C114.01 58.25 113 58.83 111.92 59.19C110.86 59.55 109.73 59.69 108.65 59.92C109.81 58.63 110.93 57.46 111.97 56.23C113.57 54.33 115.1 52.37 116.67 50.45C119.61 46.87 123.38 45.33 128.01 45.59C129.54 45.68 131.1 45.21 132.65 45C133.93 44.82 135.15 44.9 136.39 45.83C135.82 46.07 135.37 46.26 134.92 46.44C130.27 48.35 126.41 51.22 124.27 55.9C121.5 61.95 122.38 67.8099 125.8 73.3099C129.75 79.68 135.76 83.18 142.89 84.94C143.24 85.03 143.6 85.1 143.96 85.18H143.95ZM121.85 49.02C123.88 49.48 125.42 49.04 126.01 47.93C124.51 47.68 123.15 47.83 121.85 49.02Z" fill="url(#paint2_linear_96_92)"/>
<path d="M114.58 88.22C112.24 86.86 110.1 85.28 108.72 82.75C105.47 85.88 101.38 86.47 97.2 86.88C102.11 84.56 106.29 81.45 108.83 76.22C109.68 80.9 111.68 84.76 114.58 88.22Z" fill="url(#paint3_linear_96_92)"/>
<g opacity="0.05">
<path d="M173.82 204.33H189.14C193.77 204.33 197.43 205.36 200.11 207.41C202.79 209.46 204.13 212.28 204.13 215.85C204.13 218.25 203.58 220.21 202.49 221.72C201.4 223.23 199.63 224.3 197.19 224.95V225.22C199.04 225.67 200.53 226.67 201.66 228.24C202.79 229.8 203.36 231.69 203.36 233.89C203.36 237.25 202.06 239.72 199.47 241.31C196.88 242.9 192.91 243.69 187.56 243.69H173.83V204.33H173.82ZM187.98 220.8C189.67 220.8 190.95 220.45 191.84 219.75C192.73 219.05 193.17 218.04 193.17 216.73C193.17 213.93 191.51 212.53 188.19 212.53H184.45V220.79H187.98V220.8ZM184.45 235.64H187.44C190.78 235.64 192.45 234.54 192.45 232.33C192.45 231.09 192.03 230.16 191.2 229.53C190.37 228.9 189.19 228.59 187.66 228.59H184.46V235.64H184.45Z" fill="black"/>
<path d="M221.54 218.65L229.89 204.33H241.95L230.48 221.48C234.93 223.97 237.16 227.5 237.16 232.06C237.16 239.81 231.81 243.69 221.12 243.69H208.23V204.33H218.86V218.65H221.55H221.54ZM218.85 235.64H220.95C224.59 235.64 226.41 234.29 226.41 231.58C226.41 228.3 224.55 226.65 220.84 226.65H218.85V235.64Z" fill="black"/>
<path d="M253.45 204.33V243.69H242.76V204.33H253.45Z" fill="black"/>
<path d="M276.57 234.99H286.15V243.69H256.32V234.99H265.93V204.33H276.56V234.99H276.57Z" fill="black"/>
<path d="M306.38 234.99H315.96V243.69H286.13V234.99H295.74V204.33H306.37V234.99H306.38Z" fill="black"/>
<path d="M356.31 243.69H346.83V225.9C346.83 223.49 346.96 220.31 347.21 216.34H347.05L332.73 243.69H318.84V204.33H328.26V222.07C328.26 224.37 328.09 227.7 327.75 232.06H327.99L342.37 204.33H356.31V243.69Z" fill="black"/>
<path d="M385.42 213H372.69V220.43H384.48V228.96H372.69V235.15H385.42V243.68H362.05V204.32H385.42V212.99V213Z" fill="black"/>
<path d="M396.88 243.69H385.3L398.25 219.38V204.33H408.96V219.7L421.91 243.69H410.39L403.61 229.1L396.88 243.69Z" fill="black"/>
<path d="M458.35 213H445.62V220.43H457.41V228.96H445.62V235.15H458.35V243.68H434.98V204.32H458.35V212.99V213Z" fill="black"/>
<path d="M487.3 240.43C484.81 242.6 481.07 243.69 476.1 243.69H462.48V204.33H473.11V217.39H476.1C480.87 217.39 484.56 218.59 487.15 220.98C489.74 223.37 491.04 226.77 491.04 231.17C491.04 235.17 489.79 238.26 487.3 240.43ZM473.11 235.1H475.86C478.8 235.1 480.28 233.77 480.28 231.12C480.28 229.54 479.81 228.3 478.87 227.41C477.93 226.51 476.66 226.06 475.06 226.06H473.12V235.11L473.11 235.1Z" fill="black"/>
<path d="M519.38 240.43C516.89 242.6 513.15 243.69 508.18 243.69H494.56V204.33H505.19V217.39H508.18C512.95 217.39 516.64 218.59 519.23 220.98C521.82 223.37 523.12 226.77 523.12 231.17C523.12 235.17 521.87 238.26 519.38 240.43ZM505.19 235.1H507.94C510.88 235.1 512.36 233.77 512.36 231.12C512.36 229.54 511.89 228.3 510.95 227.41C510.01 226.51 508.74 226.06 507.14 226.06H505.2V235.11L505.19 235.1Z" fill="black"/>
<path d="M550 213H537.27V220.43H549.06V228.96H537.27V235.15H550V243.68H526.63V204.32H550V212.99V213Z" fill="black"/>
<path d="M567.46 218.65L575.81 204.33H587.87L576.4 221.48C580.85 223.97 583.08 227.5 583.08 232.06C583.08 239.81 577.73 243.69 567.04 243.69H554.15V204.33H564.78V218.65H567.47H567.46ZM564.77 235.64H566.87C570.51 235.64 572.33 234.29 572.33 231.58C572.33 228.3 570.47 226.65 566.76 226.65H564.77V235.64Z" fill="black"/>
<path d="M612.45 222.89C611.13 224.64 608.78 226.28 605.38 227.8C601.84 229.42 599.68 230.53 598.88 231.14C598.08 231.75 597.68 232.44 597.68 233.21C597.68 233.93 597.99 234.53 598.62 235.01C599.25 235.49 600.25 235.74 601.63 235.74C604.3 235.74 607.48 234.9 611.16 233.21L614.42 241.42C610.18 243.3 606.03 244.25 601.96 244.25C597.35 244.25 593.72 243.24 591.08 241.21C588.44 239.18 587.12 236.36 587.12 232.73C587.12 230.79 587.43 229.11 588.05 227.7C588.67 226.28 589.62 225.03 590.9 223.93C592.18 222.84 594.11 221.7 596.67 220.54C599.51 219.27 601.25 218.42 601.91 218.01C602.56 217.6 603.04 217.19 603.34 216.79C603.64 216.39 603.78 215.91 603.78 215.38C603.78 214.52 603.41 213.81 602.68 213.27C601.95 212.73 600.79 212.45 599.21 212.45C597.38 212.45 595.37 212.74 593.18 213.32C590.99 213.9 588.88 214.72 586.85 215.76V206.28C588.77 205.36 590.62 204.72 592.4 204.36C594.18 203.99 596.38 203.81 599 203.81C602.14 203.81 604.88 204.33 607.21 205.39C609.54 206.44 611.33 207.91 612.57 209.8C613.81 211.69 614.43 213.86 614.43 216.3C614.43 218.96 613.77 221.16 612.45 222.91V222.89Z" fill="black"/>
<path d="M649.74 239.16C646.51 242.59 641.76 244.3 635.5 244.3C629.24 244.3 624.49 242.57 621.22 239.12C617.94 235.66 616.31 230.66 616.31 224.11C616.31 217.56 617.96 212.44 621.25 208.98C624.54 205.52 629.28 203.78 635.45 203.78C641.62 203.78 646.47 205.5 649.72 208.95C652.97 212.4 654.59 217.43 654.59 224.05C654.59 230.67 652.97 235.72 649.74 239.15V239.16ZM635.49 235.58C638.11 235.58 640.08 234.64 641.4 232.77C642.72 230.89 643.38 227.99 643.38 224.06C643.38 220.13 642.73 217.27 641.43 215.42C640.13 213.57 638.13 212.65 635.44 212.65C630.15 212.65 627.5 216.45 627.5 224.06C627.5 231.67 630.17 235.58 635.5 235.58H635.49Z" fill="black"/>
<path d="M696.4 243.69H686.92V225.9C686.92 223.49 687.05 220.31 687.3 216.34H687.14L672.82 243.69H658.93V204.33H668.35V222.07C668.35 224.37 668.18 227.7 667.84 232.06H668.08L682.46 204.33H696.4V243.69Z" fill="black"/>
<path d="M221.26 177.28L211.3 181.57L221.26 186.47V187.62L209.79 181.89V181.15L221.26 176.12V177.28Z" fill="black"/>
<path d="M252.41 172.9H253.8L246.83 190.66H246.04L238.93 172.9H240.3L242.77 179.14H249.96L252.42 172.9H252.41ZM245.7 186.61C245.96 187.24 246.2 187.94 246.41 188.71C246.69 187.82 246.93 187.13 247.14 186.63L249.55 180.26H243.22L245.7 186.61Z" fill="black"/>
<path d="M276.98 190.59H272.65V172.91H273.88V180.22H276.61C278.74 180.22 280.38 180.68 281.55 181.59C282.71 182.5 283.29 183.81 283.29 185.52C283.29 188.91 281.19 190.6 276.98 190.6V190.59ZM273.88 189.48H276.81C278.57 189.48 279.87 189.15 280.7 188.49C281.54 187.83 281.96 186.82 281.96 185.46C281.96 183.98 281.52 182.92 280.63 182.26C279.74 181.6 278.3 181.27 276.31 181.27H273.88V189.47V189.48Z" fill="black"/>
<path d="M304.9 190.59H303.65V182.74H293.32V190.59H292.09V172.91H293.32V181.61H303.65V172.91H304.9V190.59Z" fill="black"/>
<path d="M327.64 188.43C326.24 190.05 324.31 190.87 321.85 190.87C319.39 190.87 317.47 190.06 316.05 188.44C314.63 186.82 313.93 184.61 313.93 181.79C313.93 178.97 314.63 176.74 316.03 175.11C317.43 173.48 319.36 172.66 321.82 172.66C324.28 172.66 326.22 173.48 327.63 175.11C329.03 176.74 329.73 178.96 329.73 181.77C329.73 184.58 329.03 186.8 327.64 188.43ZM316.98 187.61C318.12 188.98 319.74 189.67 321.85 189.67C323.96 189.67 325.58 188.99 326.71 187.63C327.84 186.27 328.4 184.32 328.4 181.77C328.4 179.22 327.84 177.25 326.71 175.88C325.59 174.51 323.96 173.82 321.83 173.82C319.7 173.82 318.1 174.51 316.97 175.89C315.84 177.27 315.28 179.23 315.28 181.76C315.28 184.29 315.85 186.23 316.99 187.6L316.98 187.61Z" fill="black"/>
<path d="M348.41 174.04H339.98V181.62H347.94V182.76H339.98V189.45H348.41V190.59H338.75V172.91H348.41V174.05V174.04Z" fill="black"/>
<path d="M370.23 190.59H369.03V179.05C369.03 177.74 369.07 176.36 369.14 174.91H369.07L358.61 190.59H357.38V172.91H358.57V184.38C358.57 185.33 358.52 186.74 358.42 188.61H358.52L368.99 172.91H370.24V190.59H370.23Z" fill="black"/>
<path d="M381.43 172.9V190.58H380.2V172.9H381.43Z" fill="black"/>
<path d="M396.29 182.15L401.77 190.59H400.45L395.6 183.02L390.82 190.59H389.43L394.84 182.12L388.89 172.9H390.26L395.58 181.15L400.81 172.9H402.23L396.3 182.14L396.29 182.15Z" fill="black"/>
<path d="M440.04 190.59H438.79C436.47 181.98 435.22 177.34 435.06 176.69C434.89 176.04 434.76 175.42 434.65 174.84C434.47 175.71 434.18 176.86 433.77 178.28L430.23 190.59H428.86L425.84 179.86C425.21 177.63 424.8 175.96 424.61 174.86C424.55 175.18 424.49 175.5 424.42 175.82C424.35 176.14 424.27 176.47 424.19 176.81C424.11 177.15 424.01 177.52 423.91 177.91C423.81 178.3 423.69 178.73 423.57 179.19L420.47 190.58H419.18L424.04 172.9H425.08C427.44 181.31 428.74 185.97 428.98 186.88C429.22 187.79 429.4 188.6 429.53 189.3C429.69 188.58 429.93 187.66 430.26 186.54L434.14 172.9H435.16L440.05 190.58L440.04 190.59Z" fill="black"/>
<path d="M460.93 190.59H459.68V182.74H449.35V190.59H448.12V172.91H449.35V181.61H459.68V172.91H460.93V190.59Z" fill="black"/>
<path d="M483.66 188.43C482.26 190.05 480.33 190.87 477.87 190.87C475.41 190.87 473.49 190.06 472.07 188.44C470.65 186.82 469.95 184.61 469.95 181.79C469.95 178.97 470.65 176.74 472.05 175.11C473.45 173.48 475.38 172.66 477.84 172.66C480.3 172.66 482.24 173.48 483.65 175.11C485.05 176.74 485.75 178.96 485.75 181.77C485.75 184.58 485.05 186.8 483.66 188.43ZM473 187.61C474.14 188.98 475.76 189.67 477.87 189.67C479.98 189.67 481.6 188.99 482.73 187.63C483.86 186.27 484.42 184.32 484.42 181.77C484.42 179.22 483.86 177.25 482.73 175.88C481.61 174.51 479.98 173.82 477.85 173.82C475.72 173.82 474.12 174.51 472.99 175.89C471.86 177.27 471.3 179.23 471.3 181.76C471.3 184.29 471.87 186.23 473.01 187.6L473 187.61Z" fill="black"/>
<path d="M515.55 186.61C516.2 186.4 516.86 186.14 517.51 185.84L518.97 189.6C517.23 190.43 515.4 190.85 513.49 190.85C511.74 190.85 510.22 190.48 508.92 189.73C507.63 188.98 506.63 187.92 505.94 186.53C505.25 185.14 504.91 183.53 504.91 181.7C504.91 178.77 505.62 176.53 507.05 174.99C508.47 173.44 510.52 172.67 513.19 172.67C515.05 172.67 516.72 173 518.2 173.65V177.69C517.46 177.38 516.72 177.12 515.99 176.9C515.26 176.68 514.5 176.57 513.72 176.57C511.13 176.57 509.84 178.27 509.84 181.67C509.84 183.31 510.16 184.59 510.8 185.52C511.44 186.45 512.32 186.92 513.46 186.92C514.21 186.92 514.91 186.82 515.56 186.61H515.55Z" fill="black"/>
<path d="M540.97 188.56C539.52 190.1 537.39 190.87 534.57 190.87C531.75 190.87 529.62 190.09 528.15 188.54C526.68 186.99 525.94 184.74 525.94 181.8C525.94 178.86 526.68 176.56 528.16 175C529.64 173.44 531.77 172.67 534.54 172.67C537.31 172.67 539.49 173.44 540.95 174.99C542.41 176.54 543.14 178.8 543.14 181.78C543.14 184.76 542.41 187.03 540.96 188.57L540.97 188.56ZM534.57 186.95C535.75 186.95 536.63 186.53 537.23 185.69C537.83 184.85 538.12 183.54 538.12 181.78C538.12 180.02 537.83 178.73 537.24 177.9C536.66 177.07 535.76 176.65 534.55 176.65C532.17 176.65 530.98 178.36 530.98 181.78C530.98 185.2 532.18 186.96 534.57 186.96V186.95Z" fill="black"/>
<path d="M563.99 188.41C562.45 189.86 560.25 190.59 557.42 190.59H551.3V172.91H557.02C559.96 172.91 562.25 173.71 563.87 175.31C565.49 176.91 566.31 179.18 566.31 182.13C566.31 184.87 565.54 186.97 563.99 188.42V188.41ZM560.33 178.09C559.65 177.25 558.59 176.83 557.14 176.83H556.08V186.74H557.47C558.78 186.74 559.75 186.35 560.39 185.57C561.03 184.79 561.35 183.59 561.35 181.97C561.35 180.24 561.01 178.95 560.33 178.11V178.09Z" fill="black"/>
<path d="M584.93 176.8H579.21V180.14H584.51V183.97H579.21V186.75H584.93V190.58H574.43V172.9H584.93V176.8Z" fill="black"/>
<path d="M603.65 181.24C603.06 182.03 602 182.76 600.47 183.45C598.88 184.18 597.91 184.68 597.55 184.95C597.19 185.22 597.01 185.53 597.01 185.88C597.01 186.2 597.15 186.47 597.43 186.69C597.71 186.91 598.16 187.02 598.78 187.02C599.98 187.02 601.41 186.64 603.06 185.88L604.52 189.57C602.62 190.42 600.75 190.84 598.92 190.84C596.85 190.84 595.22 190.38 594.03 189.47C592.84 188.56 592.25 187.29 592.25 185.66C592.25 184.79 592.39 184.04 592.67 183.4C592.95 182.76 593.38 182.2 593.95 181.71C594.53 181.22 595.39 180.71 596.54 180.19C597.81 179.62 598.6 179.24 598.89 179.05C599.18 178.86 599.4 178.68 599.53 178.5C599.66 178.32 599.73 178.11 599.73 177.87C599.73 177.48 599.56 177.17 599.23 176.92C598.9 176.67 598.38 176.55 597.67 176.55C596.85 176.55 595.94 176.68 594.96 176.94C593.98 177.2 593.03 177.57 592.12 178.03V173.77C592.98 173.36 593.81 173.07 594.61 172.9C595.41 172.73 596.4 172.65 597.57 172.65C598.98 172.65 600.21 172.89 601.26 173.36C602.31 173.83 603.11 174.49 603.67 175.34C604.23 176.19 604.5 177.16 604.5 178.26C604.5 179.45 604.2 180.44 603.61 181.23L603.65 181.24Z" fill="black"/>
<path d="M628.59 190.59L622.01 172.91H623.27L629.86 190.59H628.59Z" fill="black"/>
<path d="M636.45 176.12L647.92 181.15V181.89L636.45 187.62V186.47L646.4 181.57L636.45 177.28V176.12Z" fill="black"/>
<path d="M173.18 220.03C169.51 214.2 165.11 209.15 158.4 206.73C151.64 204.29 145.1 205.6 138.51 208.31C141.88 203.93 148.26 200.46 160.62 203.42C158.56 201.46 156.36 200.03 153.82 199.23C146.28 196.84 139.59 198.75 133.58 203.51C129.78 206.53 127.27 210.41 126.41 215.27C126.2 216.47 126.32 217.58 127.22 218.38C129.15 220.09 131.11 221.77 133.17 223.33C138.7 227.53 144.45 231.44 149.8 235.85C157.36 242.09 163.48 249.56 167.66 258.53C171.06 265.83 172.65 273.52 172.88 281.53C172.88 281.69 172.9 281.84 172.91 281.99C173.01 282.01 173.12 282.03 173.22 282.04C173.78 279.43 174.5 276.85 174.86 274.22C176.06 265.36 173.52 257.3 169.09 249.78C167.11 246.42 164.73 243.29 162.53 240.06C162.4 239.87 162.27 239.7 162.19 239.47C167.34 244.01 171.84 249.08 175.15 255.15C174 249.48 171.68 244.35 168.43 239.62C165.16 234.86 161.12 230.86 156.36 227.45C158.95 227.74 166.66 231.48 171.51 235.39C176 239.02 179.71 243.32 182.82 248.44C180.54 235.95 172.56 228.41 162.05 222.91C165.89 223.21 169.26 224.63 172.45 226.8C172.21 226.45 171.99 226.08 171.72 225.75C169.47 222.98 166.58 221 163.5 219.29C158.52 216.54 153.23 214.69 147.54 213.94C152.05 212.78 156.58 212.45 161.18 213.42C165.85 214.41 169.78 216.71 173.18 220.02V220.03Z" fill="url(#paint4_linear_96_92)"/>
<path d="M61.06 274.18C61.55 276.09 62.01 277.87 62.54 279.92C62.79 277.13 62.93 274.62 63.26 272.14C64.21 264.98 66.54 258.27 70.15 252C75.23 243.18 82.25 236.11 90.27 229.99C95.03 226.36 100 223 104.83 219.46C106.11 218.52 107.27 217.39 108.39 216.26C109.17 215.48 109.39 214.48 109.17 213.34C107.49 204.88 102 199.87 94.19 197.22C87.77 195.04 81.71 196.04 76.28 200.25C75.97 200.49 75.68 200.76 75.28 201.11C77.4 200.8 79.33 200.42 81.28 200.25C87.01 199.77 92.26 200.89 96.41 205.26C96.64 205.5 96.85 205.76 97.07 206.17C82.4 199.98 71.25 204.35 62.94 217.32C66.36 214.18 70.29 212.02 74.88 211.17C79.38 210.34 83.83 210.68 88.26 211.82C78.6 213.48 69.89 216.93 63.31 224.57C66.42 222.4 69.82 221.02 73.71 220.81C73.4 221.01 73.1 221.24 72.78 221.41C68.63 223.66 64.75 226.27 61.41 229.64C57 234.1 54.33 239.47 52.96 245.84C59.34 235.62 68.12 228.87 79.33 225.18C69.95 232.16 63.43 241.08 60.65 252.54C63.92 246.61 68.41 241.72 73.39 237.23C73.46 237.28 73.52 237.33 73.59 237.38C73.38 237.66 73.18 237.95 72.96 238.22C68.51 244.02 64.6 250.14 62.32 257.15C61.11 260.86 60.43 264.66 60.58 268.58C60.58 268.58 60.61 272.37 61.06 274.14V274.18Z" fill="url(#paint5_linear_96_92)"/>
<path d="M142.88 197.11C135.74 198.87 129.74 202.37 125.79 208.74C122.38 214.24 121.49 220.1 124.26 226.15C126.4 230.83 130.26 233.7 134.91 235.61C135.36 235.79 135.8 235.98 136.38 236.22C135.14 237.15 133.91 237.22 132.64 237.05C131.09 236.84 129.53 236.37 128 236.46C123.37 236.72 119.6 235.18 116.66 231.6C115.08 229.68 113.55 227.72 111.96 225.82C110.92 224.58 109.81 223.41 108.64 222.13C109.71 222.36 110.85 222.5 111.91 222.86C112.99 223.22 114 223.8 115.22 224.37C114.66 223.29 114.21 222.42 113.77 221.54C110.33 214.7 109.75 207.77 113.25 200.77C114.54 198.19 115.96 195.66 117.32 193.12C119.3 189.42 120.83 185.59 120.79 181.31C120.75 177.2 119.43 173.44 117.56 169.83C117.41 169.54 117.28 169.23 117.03 168.68C119.63 170.91 121.35 173.41 122.57 176.27C124.34 180.42 125.07 184.8 125.28 189.28C125.3 189.66 125.36 190.03 125.4 190.41C128.52 177.92 126.11 166.73 117.58 156.97C128.92 164.35 133.69 174.43 130.42 187.89C131.32 185.93 132.12 184.02 132.74 182.05C135.1 174.55 134.97 167.18 131.45 160.02C128.7 154.44 124.55 150.02 119.7 146.22C117.79 144.72 115.78 143.34 113.63 141.77C121.84 144.83 129.03 149.01 134.37 155.85C139.72 162.71 141.9 170.5 140.53 179.12C139.36 186.47 135.79 192.59 130.45 197.71C129.98 198.16 129.49 198.57 129 199C128.52 199.42 128.04 199.84 127.56 200.27C132.75 197.68 138.15 196.4 143.94 196.87C143.58 196.95 143.23 197.02 142.87 197.11H142.88ZM126.01 234.12C125.42 233 123.89 232.57 121.85 233.03C123.15 234.22 124.51 234.38 126.01 234.12Z" fill="url(#paint6_linear_96_92)"/>
<path d="M114.58 193.83C112.24 195.19 110.1 196.77 108.72 199.3C105.47 196.17 101.38 195.58 97.2 195.17C102.11 197.49 106.29 200.6 108.83 205.83C109.68 201.15 111.68 197.29 114.58 193.83Z" fill="url(#paint7_linear_96_92)"/>
</g>
<path d="M781.95 158.31H0V358.04H781.95V158.31Z" fill="url(#paint8_linear_96_92)"/>
</g>
<defs>
<linearGradient id="paint0_linear_96_92" x1="144.56" y1="21.19" x2="180.65" y2="108.97" gradientUnits="userSpaceOnUse">
<stop offset="0.12" stop-color="#00A5AE"/>
<stop offset="1" stop-color="#2B3990"/>
</linearGradient>
<linearGradient id="paint1_linear_96_92" x1="78.79" y1="48.2199" x2="114.88" y2="136" gradientUnits="userSpaceOnUse">
<stop offset="0.12" stop-color="#00A5AE"/>
<stop offset="1" stop-color="#2B3990"/>
</linearGradient>
<linearGradient id="paint2_linear_96_92" x1="102.56" y1="38.45" x2="138.65" y2="126.23" gradientUnits="userSpaceOnUse">
<stop offset="0.12" stop-color="#00A5AE"/>
<stop offset="1" stop-color="#2B3990"/>
</linearGradient>
<linearGradient id="paint3_linear_96_92" x1="88.14" y1="44.38" x2="124.23" y2="132.16" gradientUnits="userSpaceOnUse">
<stop offset="0.12" stop-color="#00A5AE"/>
<stop offset="1" stop-color="#2B3990"/>
</linearGradient>
<linearGradient id="paint4_linear_96_92" x1="-5.02749e-06" y1="260.86" x2="180.65" y2="173.08" gradientUnits="userSpaceOnUse">
<stop offset="0.12" stop-color="#00A5AE"/>
<stop offset="1" stop-color="#2B3990"/>
</linearGradient>
<linearGradient id="paint5_linear_96_92" x1="78.79" y1="233.83" x2="114.88" y2="146.04" gradientUnits="userSpaceOnUse">
<stop offset="0.12" stop-color="#00A5AE"/>
<stop offset="1" stop-color="#2B3990"/>
</linearGradient>
<linearGradient id="paint6_linear_96_92" x1="102.56" y1="243.6" x2="138.65" y2="155.81" gradientUnits="userSpaceOnUse">
<stop offset="0.12" stop-color="#00A5AE"/>
<stop offset="1" stop-color="#2B3990"/>
</linearGradient>
<linearGradient id="paint7_linear_96_92" x1="88.14" y1="237.67" x2="124.23" y2="149.89" gradientUnits="userSpaceOnUse">
<stop offset="0.12" stop-color="#00A5AE"/>
<stop offset="1" stop-color="#2B3990"/>
</linearGradient>
<linearGradient id="paint8_linear_96_92" x1="390.97" y1="343.18" x2="390.97" y2="167.76" gradientUnits="userSpaceOnUse">
<stop offset="0.12" stop-color="white"/>
<stop offset="1" stop-color="white" stop-opacity="0"/>
</linearGradient>
<clipPath id="clip0_96_92">
<rect width="781.95" height="358.05" fill="white"/>
</clipPath>
</defs>
</svg>
