<svg width="1230" height="1328" viewBox="0 0 1230 1328" fill="none" xmlns="http://www.w3.org/2000/svg">
<g opacity="0.2">
<path d="M1137.8 586.884C1103.07 642.061 1061.43 689.856 997.921 712.76C933.942 735.853 872.045 723.455 809.675 697.806C841.57 739.26 901.952 772.101 1018.93 744.087C999.435 762.637 978.613 776.171 954.574 783.742C883.213 806.362 819.896 788.285 763.016 743.235C727.051 714.653 703.296 677.931 695.156 631.934C693.169 620.577 694.304 610.072 702.822 602.5C721.089 586.316 739.639 570.416 759.135 555.652C811.473 515.901 865.893 478.896 916.527 437.158C988.078 378.101 1046 307.402 1085.56 222.507C1117.74 153.417 1132.79 80.6362 1134.96 4.82682C1134.96 3.31252 1135.15 1.89287 1135.25 0.473217C1136.19 0.28393 1137.24 0.0946435 1138.18 0C1143.48 24.7019 1150.3 49.1199 1153.7 74.0112C1165.06 157.865 1141.02 234.148 1099.09 305.32C1080.36 337.12 1057.83 366.743 1037.01 397.313C1035.78 399.111 1034.55 400.72 1033.79 402.897C1082.53 359.929 1125.12 311.945 1156.45 254.496C1145.56 308.159 1123.61 356.711 1092.85 401.478C1061.9 446.528 1023.66 484.385 978.613 516.659C1003.13 513.914 1076.1 478.517 1122 441.512C1164.49 407.156 1199.61 366.459 1229.04 318.002C1207.46 436.212 1131.94 507.573 1032.47 559.627C1068.81 556.787 1100.7 543.348 1130.89 522.81C1128.62 526.123 1126.54 529.625 1123.99 532.748C1102.69 558.964 1075.34 577.704 1046.19 593.888C999.056 619.915 948.99 637.424 895.138 644.522C937.822 655.5 980.695 658.624 1024.23 649.443C1068.43 640.074 1105.62 618.306 1137.8 586.979V586.884Z" fill="url(#paint0_linear_83_91)"/>
<path d="M76.6612 74.4844C81.2987 56.4075 85.6523 39.561 90.6684 20.1591C93.0345 46.5646 94.3595 70.3201 97.4827 93.7917C106.474 161.556 128.526 225.062 162.692 284.404C210.771 367.879 277.211 434.792 353.115 492.714C398.165 527.069 445.203 558.87 490.916 592.373C503.03 601.27 514.009 611.965 524.609 622.659C531.991 630.041 534.073 639.506 531.991 650.295C516.091 730.364 464.132 777.78 390.215 802.86C329.454 823.493 272.1 814.028 220.709 774.184C217.775 771.912 215.03 769.357 211.244 766.044C231.309 768.978 249.575 772.575 268.03 774.184C322.261 778.726 371.949 768.126 411.226 726.767C413.403 724.496 415.39 722.035 417.472 718.155C278.63 776.739 173.103 735.38 94.4542 612.627C126.822 642.345 164.017 662.788 207.458 670.833C250.048 678.688 292.164 675.47 334.091 664.681C242.666 648.97 160.231 616.318 97.956 544.011C127.39 564.548 159.569 577.609 196.385 579.597C193.451 577.704 190.612 575.527 187.583 573.918C148.306 552.623 111.585 527.921 79.9737 496.026C38.236 453.815 12.9662 402.992 0 342.704C60.3825 439.43 143.479 503.314 249.575 538.237C160.799 472.176 99.0917 387.754 72.7808 279.293C103.729 335.416 146.224 381.697 193.357 424.192C194.019 423.719 194.587 423.246 195.249 422.772C193.262 420.122 191.369 417.378 189.287 414.822C147.171 359.929 110.165 302.007 88.5863 235.662C77.1344 200.55 70.6987 164.585 72.1183 127.485C72.1183 127.485 72.4023 91.6149 76.6612 74.863V74.4844Z" fill="url(#paint1_linear_83_91)"/>
<path d="M861.161 806.173C806.362 810.621 755.255 798.507 706.135 773.994C710.678 777.969 715.221 781.944 719.763 786.014C724.306 790.084 729.039 794.059 733.487 798.223C783.932 846.775 817.814 904.697 828.887 974.165C841.853 1055.84 821.316 1129.48 770.587 1194.4C720.047 1259.14 651.999 1298.7 574.297 1327.66C594.645 1312.8 613.668 1299.74 631.745 1285.54C677.647 1249.58 716.924 1207.84 742.951 1154.93C776.266 1087.17 777.496 1017.42 755.16 946.435C749.292 927.79 741.626 909.713 733.203 891.163C764.151 1018.65 719.006 1113.95 611.681 1183.8C692.412 1091.52 715.221 985.522 685.692 867.313C685.313 870.909 684.745 874.411 684.556 878.007C682.569 920.408 675.66 961.862 658.908 1001.14C647.361 1028.21 631.083 1051.87 606.475 1072.97C608.841 1067.77 610.072 1064.83 611.491 1062.09C629.19 1028.02 641.683 992.431 642.061 953.438C642.44 912.931 627.865 876.682 609.22 841.664C596.348 817.53 582.909 793.68 570.7 769.262C537.575 703.012 542.97 637.424 575.622 572.688C579.786 564.359 584.139 556.125 589.345 545.904C577.798 551.298 568.239 556.788 558.018 560.195C547.986 563.602 537.291 564.927 527.069 567.104C538.048 554.895 548.648 543.821 558.491 532.18C573.634 514.198 588.114 495.648 602.973 477.476C630.799 443.594 666.479 429.019 710.299 431.48C724.78 432.331 739.544 427.883 754.214 425.896C766.328 424.192 777.875 424.949 789.61 433.751C784.216 436.023 779.957 437.821 775.698 439.524C731.689 457.601 695.156 484.764 674.902 529.057C648.686 586.316 657.015 641.777 689.383 693.831C726.767 754.119 783.648 787.244 851.129 803.902C854.441 804.753 857.848 805.416 861.256 806.173H861.161ZM651.999 463.942C671.211 468.296 685.787 464.132 691.37 453.626C677.174 451.26 664.302 452.68 651.999 463.942Z" fill="url(#paint2_linear_83_91)"/>
<path d="M583.193 834.944C561.046 822.073 540.793 807.119 527.732 783.174C496.973 812.798 458.263 818.382 418.703 822.262C465.172 800.305 504.733 770.871 528.773 721.372C536.818 765.665 555.746 802.198 583.193 834.944Z" fill="url(#paint3_linear_83_91)"/>
</g>
<defs>
<linearGradient id="paint0_linear_83_91" x1="866.934" y1="200.549" x2="1208.5" y2="1031.33" gradientUnits="userSpaceOnUse">
<stop offset="0.12" stop-color="#00A5AE"/>
<stop offset="1" stop-color="#2B3990"/>
</linearGradient>
<linearGradient id="paint1_linear_83_91" x1="244.464" y1="456.371" x2="586.032" y2="1287.15" gradientUnits="userSpaceOnUse">
<stop offset="0.12" stop-color="#00A5AE"/>
<stop offset="1" stop-color="#2B3990"/>
</linearGradient>
<linearGradient id="paint2_linear_83_91" x1="469.432" y1="363.904" x2="811" y2="1194.68" gradientUnits="userSpaceOnUse">
<stop offset="0.12" stop-color="#00A5AE"/>
<stop offset="1" stop-color="#2B3990"/>
</linearGradient>
<linearGradient id="paint3_linear_83_91" x1="332.956" y1="420.027" x2="674.524" y2="1250.81" gradientUnits="userSpaceOnUse">
<stop offset="0.12" stop-color="#00A5AE"/>
<stop offset="1" stop-color="#2B3990"/>
</linearGradient>
</defs>
</svg>
